<svg xmlns="http://www.w3.org/2000/svg" xmlns:xlink="http://www.w3.org/1999/xlink" width="1150" height="1300" viewBox="0 0 575 650" xml:space="preserve" color-interpolation-filters="sRGB" style="fill:none;fill-rule:evenodd;font-size:12px;overflow:visible;stroke-linecap:square;stroke-miterlimit:3"><style>.st1,.st4{fill:#ec7d31;stroke:#fff;stroke-linecap:round;stroke-linejoin:round;stroke-width:1}.st4{fill:#5b9ad4}.st5{fill:#fff;font-family:Calibri;font-size:.666664em;font-weight:700}.st6,.st7{stroke-linecap:round;stroke-linejoin:round}.st6{fill:#fff;stroke:#a5a5a5;stroke-width:2}.st7{stroke:#909090;stroke-dasharray:3.5,2.5;stroke-width:.5}.st8{fill:#5c5c5c;font-family:Calibri;font-size:.666664em;font-weight:700}.st9{fill:#ffc000;stroke-linecap:round;stroke-linejoin:round;stroke-width:.5}.st10,.st11,.st9{stroke:#e0a800}.st10{marker-end:url(#mrkr4-38);stroke-linecap:round;stroke-linejoin:round;stroke-width:.5}.st11{fill:#e0a800;fill-opacity:1;stroke-opacity:1;stroke-width:.13368983957219}.st12{fill:#896600;font-family:Calibri;font-size:.666664em}.st13,.st14,.st17,.st18{stroke-linecap:round;stroke-linejoin:round}.st13{marker-end:url(#mrkr3-81);stroke:#e0a800;stroke-dasharray:3.5,2.5;stroke-width:.5}.st14,.st17,.st18{fill:#fff;stroke:#5b9ad4;stroke-width:1}.st17,.st18{fill:none;stroke:none;stroke-width:2}.st18{stroke:#a5a5a5}.st19{font-size:1em}.st20{stroke:#fdbf01;stroke-linecap:round;stroke-linejoin:round;stroke-width:2}.st23{fill:#fff;font-family:Calibri;font-size:.666664em}.st24{fill:#cce7f3;stroke:#888;stroke-linecap:butt;stroke-width:1.25}.st25{fill:#696969;font-family:Calibri;font-size:.666664em}.st26,.st27{visibility:hidden}.st26{fill:#f3f3f3;stroke:#888;stroke-linecap:butt;stroke-width:1.25}.st27{fill:#bfbfbf}.st27,.st28,.st29,.st30{stroke:#888;stroke-linecap:butt;stroke-width:1.25}.st28{fill:#d8d8d8;visibility:hidden}.st29,.st30{fill:none}.st30{fill:#3f3f3f;stroke-linecap:round;stroke-linejoin:round}.st31,.st32{stroke:#909090}.st31{marker-end:url(#mrkr4-267);marker-start:url(#mrkr10-265);stroke-linecap:round;stroke-linejoin:round;stroke-width:.5}.st32{fill:#909090;fill-opacity:1;stroke-opacity:1;stroke-width:.16556291390728}.st33,.st34{stroke-width:1.25}.st33{fill:none;stroke:#898989;stroke-dasharray:3.75,3.75;stroke-linecap:round;stroke-linejoin:round}.st34{fill:#d8d8d8;stroke:#888;stroke-linecap:butt}.st35{font-size:1em;font-weight:700}.st36{marker-start:url(#mrkr4-383);stroke:#909090;stroke-linecap:round;stroke-linejoin:round;stroke-width:.5}.st38{fill:none;stroke:#888;stroke-linecap:butt;stroke-width:1.25;visibility:hidden}.st39{fill:#6a6a6a;font-family:Calibri;font-size:.666664em}</style><defs id="Patterns_And_Gradients"><linearGradient id="grad0-6" x1="0" y1="0" x2="1" y2="0" gradientTransform="rotate(90 .5 .5)"><stop offset=".01" stop-color="#d6d6d6"/><stop offset=".5" stop-color="#9e9e9e"/><stop offset="1" stop-color="#d6d6d6"/></linearGradient></defs><defs id="Markers"><marker id="mrkr4-38" class="st11" refX="-14.96" orient="auto" markerUnits="strokeWidth" overflow="visible"><use xlink:href="#lend4" transform="scale(-7.48)"/></marker><marker id="mrkr3-81" class="st11" orient="auto" markerUnits="strokeWidth" overflow="visible"><use xlink:href="#lend3" transform="scale(-7.48)"/></marker><marker id="mrkr10-265" class="st32" refX="3.81" orient="auto" markerUnits="strokeWidth" overflow="visible"><use xlink:href="#lend10" transform="scale(6.04)"/></marker><marker id="mrkr4-267" class="st32" refX="-12.08" orient="auto" markerUnits="strokeWidth" overflow="visible"><use xlink:href="#lend4" transform="scale(-6.04)"/></marker><marker id="mrkr4-383" refX="17.12" orient="auto" markerUnits="strokeWidth" overflow="visible" style="fill:#909090;fill-opacity:1;stroke:#909090;stroke-opacity:1;stroke-width:.11210762331839"><use xlink:href="#lend4" transform="scale(8.92)"/></marker><path d="M2 1 0 0l2-1v2" style="stroke:none" id="lend4"/><path d="M2 1 0 0l2-1" style="stroke-linecap:round;stroke-linejoin:round;fill:none" id="lend3"/><path d="M0 .75a.75.75 0 1 1 0-1.5.75.75 0 0 1 0 1.5Z" style="stroke:none" id="lend10"/></defs><g id="group1-1" transform="translate(172.456 -995.416)"><g id="group2-2" transform="translate(0 -69.398)"><g id="shape2-7"><path d="M0 1138.82h42.52v-21.26H0v21.26Z" class="st1"/><text x="6" y="1130.59" style="fill:#fff;font-family:Calibri;font-size:.666664em;font-stretch:semi-expanded">asyncio</text></g></g><g id="group4-10"><path d="M0 1138.82h366.25v-69.4H0v69.4Z" style="fill:#fff;stroke:#ec7d32;stroke-linecap:round;stroke-linejoin:round;stroke-width:1" id="shape4-13"/></g></g><g id="shape25-15" transform="translate(180.96 -1030.8)"><path class="st4" d="M0 1113.31h122.473v25.512H0z"/><text x="35.88" y="1128.46" class="st5">BaseEventLoop</text></g><g id="group6-18" transform="translate(44.063 -1003.92)"><g id="shape7-19"><path class="st6" d="M0 1113.31h51.024v25.512H0z"/></g><g id="shape8-21" transform="translate(17.008 -29.055)"><path d="M8.5 1138.82h0Z" class="st6"/></g><g id="shape10-25" transform="rotate(90 12.755 1151.575)"><path d="M0 1138.82h162.31" class="st7"/></g><g id="shape6-28"><path class="st6" d="M0 1113.31h51.024v25.512H0z"/><text x="17.15" y="1128.46" class="st8">main</text></g></g><g id="shape11-31" transform="rotate(-90 -384.258 680.732)"><path class="st9" d="M0 1130.31h144.567v8.504H0z"/></g><g id="shape12-33" transform="translate(73.827 -959.983)"><path d="M0 1145.91h119.86" class="st10"/><text x="-2.15" y="1141.96" class="st12">event_loop.create_task(test_coroutine)</text></g><g id="shape13-40" transform="translate(62.488 -986.912)"><path d="M7.09 1138.82h18v17.01H14.57" class="st10"/><text x="27.83" y="1149.04" class="st12">test_coroutine = co_test(0,5)</text></g><g id="shape19-46" transform="translate(442.331 -1030.8)"><path class="st4" d="M0 1113.31h87.874v25.512H0z"/><text x="36.47" y="1128.46" class="st5">Task</text></g><g id="shape26-49" transform="translate(379.746 -1030.8)"><path class="st4" d="M0 1113.31h51.024v25.512H0z"/><text x="13.72" y="1128.46" class="st5">Handle</text></g><g id="shape27-52" transform="rotate(-90 -315.811 612.284)"><path class="st9" d="M0 1130.31h110.551v8.504H0z"/></g><g id="shape28-54" transform="rotate(-90 -192.61 480.17)"><path class="st9" d="M0 1130.31h81.795v8.504H0z"/></g><g id="shape29-56" transform="translate(206.472 -925.967)"><path d="M0 1131.73h243.58" class="st10"/><text x="13.08" y="1126.37" class="st12">Task(coro,self)</text></g><g id="shape35-62" transform="translate(461.788 -911.794)"><path d="M0 1131.73h-171.43" class="st10"/><text x="-150.07" y="1129.2" class="st12">self._loop.call_soon(self.__step,context)</text></g><g id="shape41-68" transform="translate(278.63 -883.448)"><path d="M0 1131.73h114.34" class="st10"/><text x="15.38" y="1129.2" class="st12">Handle(Task.__step, context)</text></g><g id="shape42-74" transform="rotate(-90 -233.425 495.884)"><path class="st9" d="M0 1130.31h14.173v8.504H0z"/></g><g id="shape43-76" transform="translate(405.258 -869.275)"><path d="M0 1131.73h-120.88" class="st13"/><text x="-115.68" y="1127.78" class="st12">self._ready.push(return:Handle)</text></g><g id="shape44-83" transform="rotate(-90 -289.653 566.284)"><path class="st9" d="M0 1130.31h56.693v8.504H0z"/></g><g id="shape45-85" transform="translate(278.63 -869.275)"><path d="M0 1145.91h177.09" class="st13"/></g><g id="shape46-90" transform="translate(461.788 -844.173)"><path d="M0 1131.73h-251.32" class="st13"/><text x="-144.3" y="1134.13" class="st12">return:Task</text></g><g id="shape47-96" transform="translate(206.472 -835.259)"><path d="M0 1131.73h-132.01" class="st13"/><text x="-121.89" y="1126.37" class="st12">co_test_task = return:Task</text></g><g id="group110-102" transform="translate(108.968 -1003.92)"><g id="group111-103"><g id="shape112-104"><path class="st14" d="M0 1113.31h51.024v25.512H0z"/></g><g id="shape113-106" transform="translate(17.008 -29.055)"><path d="M8.5 1138.82h0Z" class="st14"/></g><g id="shape115-110" transform="rotate(90 12.755 1151.575)"><path d="M0 1138.82h3.57" style="stroke:#4f87bb;stroke-dasharray:3.5,2.5;stroke-linecap:round;stroke-linejoin:round;stroke-width:.5"/></g><g id="shape111-113"><path class="st14" d="M0 1113.31h51.024v25.512H0z"/><text x="13.31" y="1128.46" style="fill:#245685;font-family:Calibri;font-size:.666664em;font-weight:700">co_test</text></g></g><g id="shape116-116" transform="translate(0 -25.512)"><path class="st4" d="M0 1113.31h51.024v25.512H0z"/><text x="9.44" y="1128.46" class="st5">coroutine</text></g></g><g id="group14-119" transform="translate(442.331 -1003.92)"><g id="shape15-120" transform="translate(-6.054)"><path class="st17" d="M0 1113.31h51.024v25.512H0z"/></g><g id="shape16-122" transform="translate(10.954 -29.055)"><path d="M8.5 1138.82h0Z" class="st6"/></g><g id="shape18-126" transform="rotate(90 9.73 1148.55)"><path d="M0 1138.82h153.81" class="st7"/></g><g id="shape14-129"><path class="st6" d="M0 1113.31h38.915v25.512H0z"/><text x="5.99" y="1128.46" class="st8">__init__</text></g></g><g id="group20-132" transform="translate(180.96 -1003.92)"><g id="shape21-133"><path class="st6" d="M0 1113.31h51.024v25.512H0z"/></g><g id="shape22-135" transform="translate(17.008 -29.055)"><path d="M8.5 1138.82h0Z" class="st6"/></g><g id="shape24-139" transform="rotate(90 12.755 1151.575)"><path d="M0 1138.82h162.31" class="st7"/></g><g id="shape20-142"><path class="st6" d="M0 1113.31h51.024v25.512H0z"/><text x="6.16" y="1128.46" class="st8">create_task</text></g></g><g id="group30-145" transform="translate(253.118 -1003.92)"><g id="shape31-146"><path class="st6" d="M0 1113.31h51.024v25.512H0z"/></g><g id="shape32-148" transform="translate(17.008 -29.055)"><path d="M8.5 1138.82h0Z" class="st6"/></g><g id="shape34-152" transform="rotate(90 12.755 1151.575)"><path d="M0 1138.82h142.47" class="st7"/></g><g id="shape30-155"><path class="st6" d="M0 1113.31h51.024v25.512H0z"/><text x="7.87" y="1128.46" class="st8">_call_soon</text></g></g><g id="group36-158" transform="translate(379.746 -1003.92)"><g id="shape37-159"><path class="st6" d="M0 1113.31h51.024v25.512H0z"/></g><g id="shape38-161" transform="translate(17.008 -29.055)"><path d="M8.5 1138.82h0Z" class="st6"/></g><g id="shape40-165" transform="rotate(90 12.755 1151.575)"><path d="M0 1138.82h131.13" class="st7"/></g><g id="shape36-168"><path class="st6" d="M0 1113.31h51.024v25.512H0z"/><text x="12.04" y="1128.46" class="st8">__init__</text></g></g><g id="group122-171" transform="translate(491.29 -1003.92)"><g id="shape123-172" transform="translate(-6.054)"><path class="st17" d="M0 1113.31h51.024v25.512H0z"/></g><g id="shape124-174" transform="translate(10.954 -29.055)"><path d="M8.5 1138.82h0Z" class="st18"/></g><g id="shape126-178" transform="rotate(90 9.73 1148.55)"><path d="M0 1138.82h3.01" class="st7"/></g><g id="shape122-181"><path class="st18" d="M0 1113.31h38.915v25.512H0z"/><text x="8.33" y="1128.46" class="st8">__step</text></g></g><g id="shape139-184" transform="translate(458.954 -933.101)"><path d="M7.09 1138.87h18v14.08H14.57" class="st10"/><text x="27.99" y="1142.94" class="st12">self._coro = args[0] <tspan x="28.06" dy="1.2em" class="st19">self._loop = args[1]</tspan></text></g><g id="shape154-191" transform="translate(232.66 -1091.06)"><path d="m118.09 1138.82-59.75 61.62M0 1134.57v4.25h265.04v-4.25" class="st20"/><text x="7.17" y="1121.54" style="fill:#8d6a01;font-family:Calibri;font-size:.666664em">invoke from BaseEventLoop.call_soon in which do extra thing about checking <tspan x="108.06" dy="1.2em" class="st19">and debug info</tspan></text></g><g id="shape643-197" transform="translate(635.181 -18)"/><g id="shape709-199" transform="translate(52.567 -962.079)"><path d="M0 1129.61a9.213 9.213 0 0 1 18.43 0 9.213 9.213 0 1 1-18.43 0Z" class="st1"/><text x="7.19" y="1132.01" class="st23">1</text></g><g id="shape714-202" transform="translate(480.598 -898.299)"><path d="M0 1129.61a9.213 9.213 0 0 1 18.43 0 9.213 9.213 0 1 1-18.43 0Z" class="st1"/><text x="7.19" y="1132.01" class="st23">2</text></g><g id="shape715-205" transform="translate(400.449 -881.322)"><path d="M0 1129.61a9.213 9.213 0 0 1 18.43 0 9.213 9.213 0 1 1-18.43 0Z" class="st1"/><text x="7.19" y="1132.01" class="st23">3</text></g><g id="shape716-208" transform="translate(263.039 -865.701)"><path d="M0 1129.61a9.213 9.213 0 0 1 18.43 0 9.213 9.213 0 1 1-18.43 0Z" class="st1"/><text x="7.19" y="1132.01" class="st23">4</text></g><g id="shape720-211" transform="translate(52.567 -832.394)"><path d="M0 1129.61a9.213 9.213 0 0 1 18.43 0 9.213 9.213 0 1 1-18.43 0Z" class="st1"/><text x="7.19" y="1132.01" class="st23">5</text></g><g id="shape766-214" transform="translate(56.512 -708.378)"><path class="st24" d="M0 1124.65h32.51v14.173H0z"/><text x="4.23" y="1134.13" class="st25">co_test</text></g><g id="shape794-217" transform="translate(26.7 -775.701)"><path d="M0 1129.61a9.213 9.213 0 0 1 18.43 0 9.213 9.213 0 1 1-18.43 0Z" class="st1"/><text x="7.19" y="1132.01" class="st23">1</text></g><g id="group795-220" transform="matrix(1 0 0 -1 43 1499.81)"><g id="shape808-245" transform="translate(0 -42.52)"/><g id="shape809-247" transform="translate(0 -28.346)"><path class="st29" d="M0 1124.65h63.779v14.173H0z"/><text x="13.57" y="-1129.33" transform="scale(1 -1)" class="st25">_stop: bool</text></g><g id="shape810-250" transform="translate(0 -14.173)"><path class="st29" d="M0 1124.65h63.779v14.173H0z"/><text x="9.33" y="-1129.33" transform="scale(1 -1)" class="st25">_ready:deque</text></g><g id="shape811-253"><path class="st30" d="M0 1124.65h63.779v14.173H0z"/><text x="7.05" y="-1129.33" transform="scale(1 -1)" class="st23">BaseEventLoop</text></g></g><g id="shape817-256" transform="translate(184.732 -775.701)"><path d="M0 1129.61a9.213 9.213 0 0 1 18.43 0 9.213 9.213 0 1 1-18.43 0Z" class="st1"/><text x="7.19" y="1132.01" class="st23">2</text></g><g id="shape818-259" transform="translate(106.78 -756.567)"><path d="M1.91 1138.82H8.13" class="st31"/></g><g id="group819-268" transform="translate(120.953 -749.48)"><g id="shape825-279" transform="translate(85.04)"/><g id="shape826-281" transform="translate(42.52)"/><g id="shape827-283"><path d="M0 1138.82h42.52v-14.17H0v14.17Z" class="st33"/><text x="8.4" y="1134.13" class="st25">(empty)</text></g></g><g id="group999-286" transform="matrix(1 0 0 -1 213.079 1549.42)"><g id="shape1011-309" transform="translate(0 -56.693)"><path class="st34" d="M0 1124.65h63.779v14.173H0z"/><text x="14.55" y="-1129.33" transform="scale(1 -1)" class="st25">def <tspan class="st35">__step</tspan></text></g><g id="shape1012-313" transform="translate(0 -42.52)"><path class="st29" d="M0 1124.65h63.779v14.173H0z"/><text x="4.4" y="-1129.33" transform="scale(1 -1)" class="st25">_loop:EventLoop</text></g><g id="shape1013-316" transform="translate(0 -28.346)"><path class="st29" d="M0 1124.65h63.779v14.173H0z"/><text x="4.86" y="-1129.33" transform="scale(1 -1)" class="st25">_coro: coroutine</text></g><g id="shape1014-319" transform="translate(0 -14.173)"><path class="st29" d="M0 1124.65h63.779v14.173H0z"/><text x="9.55" y="-1129.33" transform="scale(1 -1)" class="st25">_callbacks:list</text></g><g id="shape1015-322"><path class="st30" d="M0 1124.65h63.779v14.173H0z"/><text x="24.64" y="-1129.33" transform="scale(1 -1)" class="st23">Task</text></g></g><g id="shape1016-325" transform="translate(276.85 -756.567)"><path d="M1.91 1138.82H8.13" class="st31"/></g><g id="group1017-332" transform="matrix(1 0 0 -1 213.079 1499.81)"><g id="shape1030-357" transform="translate(0 -42.52)"/><g id="shape1031-359" transform="translate(0 -28.346)"><path class="st29" d="M0 1124.65h63.779v14.173H0z"/><text x="13.57" y="-1129.33" transform="scale(1 -1)" class="st25">_stop: bool</text></g><g id="shape1032-362" transform="translate(0 -14.173)"><path class="st29" d="M0 1124.65h63.779v14.173H0z"/><text x="9.33" y="-1129.33" transform="scale(1 -1)" class="st25">_ready:deque</text></g><g id="shape1033-365"><path class="st30" d="M0 1124.65h63.779v14.173H0z"/><text x="7.05" y="-1129.33" transform="scale(1 -1)" class="st23">BaseEventLoop</text></g></g><g id="shape1043-368" transform="translate(276.85 -692.787)"><path d="M1.91 1138.82H8.13" class="st31"/></g><g id="shape1044-375" transform="translate(291.031 -685.701)"><path class="st24" d="M0 1124.65h32.51v14.173H0z"/><text x="4.23" y="1134.13" class="st25">co_test</text></g><g id="shape1064-378" transform="translate(205.992 -770.74)"><path d="M-1.47 1138.82h-5.38v92.12H7.09" class="st36"/></g><g id="group1065-384" transform="translate(291.031 -749.48)"><g id="shape1071-395" transform="translate(85.04)"/><g id="shape1072-397" transform="translate(42.52)"/><g id="shape1073-399"><path d="M0 1138.82h42.52v-14.17H0v14.17Z" class="st33"/><text x="8.4" y="1134.13" class="st25">(empty)</text></g></g><g id="group1074-402" transform="matrix(1 0 0 -1 383.157 1549.42)"><g id="shape1086-425" transform="translate(0 -56.693)"><path class="st34" d="M0 1124.65h63.779v14.173H0z"/><text x="14.55" y="-1129.33" transform="scale(1 -1)" class="st25">def <tspan class="st35">__step</tspan></text></g><g id="shape1087-429" transform="translate(0 -42.52)"><path class="st29" d="M0 1124.65h63.779v14.173H0z"/><text x="4.4" y="-1129.33" transform="scale(1 -1)" class="st25">_loop:EventLoop</text></g><g id="shape1088-432" transform="translate(0 -28.346)"><path class="st29" d="M0 1124.65h63.779v14.173H0z"/><text x="4.86" y="-1129.33" transform="scale(1 -1)" class="st25">_coro: coroutine</text></g><g id="shape1089-435" transform="translate(0 -14.173)"><path class="st29" d="M0 1124.65h63.779v14.173H0z"/><text x="9.55" y="-1129.33" transform="scale(1 -1)" class="st25">_callbacks:list</text></g><g id="shape1090-438"><path class="st30" d="M0 1124.65h63.779v14.173H0z"/><text x="24.64" y="-1129.33" transform="scale(1 -1)" class="st23">Task</text></g></g><g id="shape1091-441" transform="translate(446.929 -756.567)"><path d="M1.91 1138.82H8.13" class="st31"/></g><g id="group1092-448" transform="matrix(1 0 0 -1 383.157 1499.81)"><g id="shape1105-473" transform="translate(0 -42.52)"/><g id="shape1106-475" transform="translate(0 -28.346)"><path class="st29" d="M0 1124.65h63.779v14.173H0z"/><text x="13.57" y="-1129.33" transform="scale(1 -1)" class="st25">_stop: bool</text></g><g id="shape1107-478" transform="translate(0 -14.173)"><path class="st29" d="M0 1124.65h63.779v14.173H0z"/><text x="9.33" y="-1129.33" transform="scale(1 -1)" class="st25">_ready:deque</text></g><g id="shape1108-481"><path class="st30" d="M0 1124.65h63.779v14.173H0z"/><text x="7.05" y="-1129.33" transform="scale(1 -1)" class="st23">BaseEventLoop</text></g></g><g id="shape1118-484" transform="translate(446.929 -692.787)"><path d="M1.91 1138.82H8.13" class="st31"/></g><g id="shape1119-491" transform="translate(461.11 -685.701)"><path class="st24" d="M0 1124.65h32.51v14.173H0z"/><text x="4.23" y="1134.13" class="st25">co_test</text></g><g id="group1120-494" transform="matrix(1 0 0 -1 510.717 1591.94)"><g id="shape1133-519" transform="translate(0 -42.52)"/><g id="shape1134-521" transform="translate(0 -28.346)"/><g id="shape1135-523" transform="translate(0 -14.173)"><path class="st29" d="M0 1124.65h63.779v14.173H0z"/><text x="16.93" y="-1129.33" transform="scale(1 -1)" class="st39">_callback</text></g><g id="shape1136-526"><path class="st30" d="M0 1124.65h63.779v14.173H0z"/><text x="20.37" y="-1129.33" transform="scale(1 -1)" class="st23">Handle</text></g></g><g id="shape1137-529" transform="rotate(180 255.358 806.6)"><path d="M1.91 1138.82h55.83" class="st31"/></g><g id="shape1139-536" transform="translate(376.071 -770.74)"><path d="M-1.47 1138.82h-6.04v92.12h14.6" class="st36"/></g><g id="shape1140-541" transform="translate(352.685 -775.701)"><path d="M0 1129.61a9.213 9.213 0 0 1 18.43 0 9.213 9.213 0 1 1-18.43 0Z" class="st1"/><text x="7.19" y="1132.01" class="st23">3</text></g><g id="group1141-544" transform="translate(461.11 -749.48)"><g id="shape1147-555" transform="translate(85.04)"/><g id="shape1148-557" transform="translate(42.52)"/><g id="shape1149-559"><path d="M0 1138.82h42.52v-14.17H0v14.17Z" class="st33"/><text x="8.4" y="1134.13" class="st25">(empty)</text></g></g><g id="shape1206-562" transform="translate(29.181 -612.709)"><path d="M0 1129.61a9.213 9.213 0 0 1 18.43 0 9.213 9.213 0 1 1-18.43 0Z" class="st1"/><text x="7.19" y="1132.01" class="st23">4</text></g><g id="group1282-565" transform="matrix(1 0 0 -1 64.26 1712.41)"><g id="shape1294-588" transform="translate(0 -56.693)"><path class="st34" d="M0 1124.65h63.779v14.173H0z"/><text x="14.55" y="-1129.33" transform="scale(1 -1)" class="st25">def <tspan class="st35">__step</tspan></text></g><g id="shape1295-592" transform="translate(0 -42.52)"><path class="st29" d="M0 1124.65h63.779v14.173H0z"/><text x="4.4" y="-1129.33" transform="scale(1 -1)" class="st25">_loop:EventLoop</text></g><g id="shape1296-595" transform="translate(0 -28.346)"><path class="st29" d="M0 1124.65h63.779v14.173H0z"/><text x="4.86" y="-1129.33" transform="scale(1 -1)" class="st25">_coro: coroutine</text></g><g id="shape1297-598" transform="translate(0 -14.173)"><path class="st29" d="M0 1124.65h63.779v14.173H0z"/><text x="9.55" y="-1129.33" transform="scale(1 -1)" class="st25">_callbacks:list</text></g><g id="shape1298-601"><path class="st30" d="M0 1124.65h63.779v14.173H0z"/><text x="24.64" y="-1129.33" transform="scale(1 -1)" class="st23">Task</text></g></g><g id="shape1299-604" transform="translate(128.031 -593.575)"><path d="M1.91 1138.82H8.13" class="st31"/></g><g id="group1300-611" transform="matrix(1 0 0 -1 64.26 1662.8)"><g id="shape1313-636" transform="translate(0 -42.52)"/><g id="shape1314-638" transform="translate(0 -28.346)"><path class="st29" d="M0 1124.65h63.779v14.173H0z"/><text x="13.57" y="-1129.33" transform="scale(1 -1)" class="st25">_stop: bool</text></g><g id="shape1315-641" transform="translate(0 -14.173)"><path class="st29" d="M0 1124.65h63.779v14.173H0z"/><text x="9.33" y="-1129.33" transform="scale(1 -1)" class="st25">_ready:deque</text></g><g id="shape1316-644"><path class="st30" d="M0 1124.65h63.779v14.173H0z"/><text x="7.05" y="-1129.33" transform="scale(1 -1)" class="st23">BaseEventLoop</text></g></g><g id="group1317-647" transform="translate(142.213 -586.488)"><g id="shape1323-658" transform="translate(85.04)"/><g id="shape1324-660" transform="translate(42.52)"/><g id="shape1325-662"><path class="st29" d="M0 1124.65h42.52v14.173H0z"/><text x="8.1" y="1134.13" class="st25">handle0</text></g></g><g id="shape1326-665" transform="translate(128.031 -529.795)"><path d="M1.91 1138.82H8.13" class="st31"/></g><g id="shape1327-672" transform="translate(142.213 -522.709)"><path class="st24" d="M0 1124.65h32.51v14.173H0z"/><text x="4.23" y="1134.13" class="st25">co_test</text></g><g id="group1328-675" transform="matrix(1 0 0 -1 191.819 1754.93)"><g id="shape1341-700" transform="translate(0 -42.52)"/><g id="shape1342-702" transform="translate(0 -28.346)"/><g id="shape1343-704" transform="translate(0 -14.173)"><path class="st29" d="M0 1124.65h63.779v14.173H0z"/><text x="16.93" y="-1129.33" transform="scale(1 -1)" class="st39">_callback</text></g><g id="shape1344-707"><path class="st30" d="M0 1124.65h63.779v14.173H0z"/><text x="20.37" y="-1129.33" transform="scale(1 -1)" class="st23">Handle</text></g></g><g id="shape1345-710" transform="rotate(180 95.91 888.095)"><path d="M1.91 1138.82h55.83" class="st31"/></g><g id="shape1346-717" transform="translate(223.709 -522.709)"><path d="M0 1130.26v-31.55h-60.24v-23.67" class="st36"/></g><g id="shape1347-722" transform="translate(57.173 -607.748)"><path d="M-1.47 1138.82h-12.7v92.12H7.09" class="st36"/></g><g id="shape1348-727" transform="translate(324.693 -614.835)"><path d="M0 1129.61a9.213 9.213 0 0 1 18.43 0 9.213 9.213 0 1 1-18.43 0Z" class="st1"/><text x="7.19" y="1132.01" class="st23">5</text></g><g id="group1349-730" transform="matrix(1 0 0 -1 361.898 1712.41)"><g id="shape1361-753" transform="translate(0 -56.693)"><path class="st34" d="M0 1124.65h63.779v14.173H0z"/><text x="14.55" y="-1129.33" transform="scale(1 -1)" class="st25">def <tspan class="st35">__step</tspan></text></g><g id="shape1362-757" transform="translate(0 -42.52)"><path class="st29" d="M0 1124.65h63.779v14.173H0z"/><text x="4.4" y="-1129.33" transform="scale(1 -1)" class="st25">_loop:EventLoop</text></g><g id="shape1363-760" transform="translate(0 -28.346)"><path class="st29" d="M0 1124.65h63.779v14.173H0z"/><text x="4.86" y="-1129.33" transform="scale(1 -1)" class="st25">_coro: coroutine</text></g><g id="shape1364-763" transform="translate(0 -14.173)"><path class="st29" d="M0 1124.65h63.779v14.173H0z"/><text x="9.55" y="-1129.33" transform="scale(1 -1)" class="st25">_callbacks:list</text></g><g id="shape1365-766"><path class="st30" d="M0 1124.65h63.779v14.173H0z"/><text x="24.64" y="-1129.33" transform="scale(1 -1)" class="st23">Task</text></g></g><g id="shape1366-769" transform="translate(425.669 -593.575)"><path d="M1.91 1138.82H8.13" class="st31"/></g><g id="group1367-776" transform="matrix(1 0 0 -1 361.898 1662.8)"><g id="shape1380-801" transform="translate(0 -42.52)"/><g id="shape1381-803" transform="translate(0 -28.346)"><path class="st29" d="M0 1124.65h63.779v14.173H0z"/><text x="13.57" y="-1129.33" transform="scale(1 -1)" class="st25">_stop: bool</text></g><g id="shape1382-806" transform="translate(0 -14.173)"><path class="st29" d="M0 1124.65h63.779v14.173H0z"/><text x="9.33" y="-1129.33" transform="scale(1 -1)" class="st25">_ready:deque</text></g><g id="shape1383-809"><path class="st30" d="M0 1124.65h63.779v14.173H0z"/><text x="7.05" y="-1129.33" transform="scale(1 -1)" class="st23">BaseEventLoop</text></g></g><g id="group1384-812" transform="translate(439.85 -586.488)"><g id="shape1390-823" transform="translate(85.04)"/><g id="shape1391-825" transform="translate(42.52)"/><g id="shape1392-827"><path class="st29" d="M0 1124.65h42.52v14.173H0z"/><text x="8.1" y="1134.13" class="st25">handle0</text></g></g><g id="shape1393-830" transform="translate(425.669 -529.795)"><path d="M1.91 1138.82H8.13" class="st31"/></g><g id="shape1394-837" transform="translate(439.85 -522.709)"><path class="st24" d="M0 1124.65h32.51v14.173H0z"/><text x="4.23" y="1134.13" class="st25">co_test</text></g><g id="group1395-840" transform="matrix(1 0 0 -1 489.457 1754.93)"><g id="shape1408-865" transform="translate(0 -42.52)"/><g id="shape1409-867" transform="translate(0 -28.346)"/><g id="shape1410-869" transform="translate(0 -14.173)"><path class="st29" d="M0 1124.65h63.779v14.173H0z"/><text x="16.93" y="-1129.33" transform="scale(1 -1)" class="st39">_callback</text></g><g id="shape1411-872"><path class="st30" d="M0 1124.65h63.779v14.173H0z"/><text x="20.37" y="-1129.33" transform="scale(1 -1)" class="st23">Handle</text></g></g><g id="shape1412-875" transform="rotate(180 244.728 888.095)"><path d="M1.91 1138.82h55.83" class="st31"/></g><g id="shape1413-882" transform="translate(521.346 -522.709)"><path d="M0 1130.26v-31.55h-60.24v-23.67" class="st36"/></g><g id="shape1414-887" transform="translate(354.811 -607.748)"><path d="M-1.47 1138.82H-6.6v92.12H7.09" class="st36"/></g><g id="shape1424-892" transform="translate(281.863 -551.055)"><path style="fill:#fceed1;stroke:#888;stroke-linecap:butt;stroke-width:1.25" d="M0 1124.65h58.775v14.173H0z"/><text x="3.84" y="1134.13" class="st25">single_task(var)</text></g><g id="shape1425-895" transform="translate(340.638 -558.142)"><path d="M1.91 1138.82H15.22" class="st31"/></g></svg>