<svg xmlns="http://www.w3.org/2000/svg" xmlns:xlink="http://www.w3.org/1999/xlink" width="1220" height="1960" viewBox="0 0 610 980" xml:space="preserve" color-interpolation-filters="sRGB" style="fill:none;fill-rule:evenodd;font-size:12px;overflow:visible;stroke-linecap:square;stroke-miterlimit:3"><style>.st1{fill:#ec7d31;stroke:#fff;stroke-linecap:round;stroke-linejoin:round;stroke-width:1}.st4,.st5{stroke:#e0a800}.st4{marker-end:url(#mrkr4-20);stroke-linecap:round;stroke-linejoin:round;stroke-width:.5}.st5{fill:#e0a800;fill-opacity:1;stroke-opacity:1;stroke-width:.13368983957219}.st7{font-size:1em}.st8{fill:#5b9ad4;stroke:#fff;stroke-linecap:round;stroke-linejoin:round;stroke-width:1}.st9{fill:#fff;font-family:Calibri;font-size:.666664em;font-weight:700}.st10,.st11{stroke-linecap:round;stroke-linejoin:round}.st10{fill:#fff;stroke:#a5a5a5;stroke-width:2}.st11{stroke:#909090;stroke-dasharray:3.5,2.5;stroke-width:.5}.st12{fill:#5c5c5c;font-family:Calibri;font-size:.666664em;font-weight:700}.st13{fill:#ffc000;stroke:#e0a800;stroke-linecap:round;stroke-linejoin:round;stroke-width:.5}.st14{fill:#896600;font-family:Calibri;font-size:.666664em}.st15,.st21{stroke-linecap:round;stroke-linejoin:round}.st15{fill:#fff;stroke:#5b9ad4;stroke-width:1}.st21{marker-end:url(#mrkr3-162);stroke:#e0a800;stroke-dasharray:3.5,2.5;stroke-width:.5}.st25{fill:#fff;font-family:Calibri;font-size:.666664em}.st30{fill:#000;fill-opacity:.2;stroke:#888;stroke-linecap:butt;stroke-width:1.25}.st31{fill:#696969;font-family:Calibri;font-size:.666664em;font-weight:700}.st32,.st33{stroke:#888;stroke-linecap:butt;stroke-width:1.25}.st32{fill:#f3f3f3;visibility:hidden}.st33{fill:#0c0c0c;fill-opacity:.2}.st34{fill:#696969;font-family:Calibri;font-size:.666664em}.st35{font-size:1em;font-weight:700}.st36,.st37{fill:none;stroke:#888;stroke-linecap:butt;stroke-width:1.25}.st37{fill:#3f3f3f;stroke-linecap:round;stroke-linejoin:round}.st38,.st39{stroke:#909090}.st38{marker-end:url(#mrkr4-391);marker-start:url(#mrkr10-389);stroke-linecap:round;stroke-linejoin:round;stroke-width:.5}.st39{fill:#909090;fill-opacity:1;stroke-opacity:1;stroke-width:.16556291390728}.st40,.st41{visibility:hidden}.st40{fill:#bfbfbf;stroke:#888;stroke-linecap:butt;stroke-width:1.25}.st41{fill:#d8d8d8}.st41,.st42,.st43{stroke:#888;stroke-linecap:butt;stroke-width:1.25}.st42{fill:none;visibility:hidden}.st43{fill:#cce7f3}.st44,.st46{stroke-linecap:round;stroke-linejoin:round}.st44{marker-start:url(#mrkr4-504);stroke:#909090;stroke-width:.5}.st46{fill:none;stroke:#898989;stroke-dasharray:3.75,3.75;stroke-width:1.25}.st47{visibility:hidden}.st47,.st48{fill:#fceed1;stroke:#888;stroke-linecap:butt;stroke-width:1.25}.st49{fill:#6a6a6a;font-family:Calibri;font-size:.666664em;font-weight:700}.st50,.st52{stroke-linecap:round;stroke-linejoin:round}.st50{fill:#3f3f3f;fill-opacity:.5;stroke:#888;stroke-width:1.25}.st52{stroke:#fdbf01;stroke-width:1}.st53{fill:#8d6a01;font-family:Calibri;font-size:.666664em}</style><defs id="Patterns_And_Gradients"><linearGradient id="grad0-6" x1="0" y1="0" x2="1" y2="0" gradientTransform="rotate(90 .5 .5)"><stop offset=".01" stop-color="#d6d6d6"/><stop offset=".5" stop-color="#9e9e9e"/><stop offset="1" stop-color="#d6d6d6"/></linearGradient></defs><defs id="Markers"><marker id="mrkr4-20" class="st5" refX="-14.96" orient="auto" markerUnits="strokeWidth" overflow="visible"><use xlink:href="#lend4" transform="scale(-7.48)"/></marker><marker id="mrkr3-154" orient="auto" markerUnits="strokeWidth" overflow="visible" style="fill:#c00000;fill-opacity:1;stroke:#c00000;stroke-opacity:1;stroke-width:.13368983957219"><use xlink:href="#lend3" transform="scale(-7.48)"/></marker><marker id="mrkr3-162" class="st5" orient="auto" markerUnits="strokeWidth" overflow="visible"><use xlink:href="#lend3" transform="scale(-7.48)"/></marker><marker id="mrkr4-181" refX="-14.96" orient="auto" markerUnits="strokeWidth" overflow="visible" style="fill:#4f87bb;fill-opacity:1;stroke:#4f87bb;stroke-opacity:1;stroke-width:.13368983957219"><use xlink:href="#lend4" transform="scale(-7.48)"/></marker><marker id="mrkr10-389" class="st39" refX="3.81" orient="auto" markerUnits="strokeWidth" overflow="visible"><use xlink:href="#lend10" transform="scale(6.04)"/></marker><marker id="mrkr4-391" class="st39" refX="-12.08" orient="auto" markerUnits="strokeWidth" overflow="visible"><use xlink:href="#lend4" transform="scale(-6.04)"/></marker><marker id="mrkr4-504" refX="17.12" orient="auto" markerUnits="strokeWidth" overflow="visible" style="fill:#909090;fill-opacity:1;stroke:#909090;stroke-opacity:1;stroke-width:.11210762331839"><use xlink:href="#lend4" transform="scale(8.92)"/></marker><marker id="mrkr10-1044" class="st39" refX="4.53" orient="auto" markerUnits="strokeWidth" overflow="visible"><use xlink:href="#lend10" transform="scale(6.04)"/></marker><marker id="mrkr4-1046" class="st39" refX="-11.36" orient="auto" markerUnits="strokeWidth" overflow="visible"><use xlink:href="#lend4" transform="scale(-6.04)"/></marker><path d="M2 1 0 0l2-1v2" style="stroke:none" id="lend4"/><path d="M2 1 0 0l2-1" style="stroke-linecap:round;stroke-linejoin:round;fill:none" id="lend3"/><path d="M0 .75a.75.75 0 1 1 0-1.5.75.75 0 0 1 0 1.5Z" style="stroke:none" id="lend10"/></defs><g id="group1-1" transform="translate(34.3 -1042.72)"><g id="group2-2" transform="translate(0 -70.866)"><g id="shape2-7"><path d="M0 1153.35h42.52v-21.26H0v21.26Z" class="st1"/><text x="6" y="1145.12" style="fill:#fff;font-family:Calibri;font-size:.666664em;font-stretch:semi-expanded">asyncio</text></g></g><g id="group4-10"><path d="M0 1153.35h511.37v-70.87H0v70.87Z" style="fill:#fff;stroke:#ec7d32;stroke-linecap:round;stroke-linejoin:round;stroke-width:1" id="shape4-13"/></g></g><g id="shape1051-15" transform="translate(292.966 -916.583)"><path d="M0 1160.44h-108.17" class="st4"/><text x="-104.92" y="1116.39" style="fill:#886500;font-family:Calibri;font-size:.666664em">callbacks = self._callbacks <tspan x="-96.83" dy="1.2em" class="st7">self._loop.call_soon( </tspan><tspan x="-107.66" dy="1.2em" class="st7">callback</tspan>s, self, context=ctx)</text></g><g id="shape1050-24" transform="translate(355.393 -930.756)"><path d="M0 1146.26h-50.69" class="st4"/></g><g id="shape1469-29" transform="translate(452.127 -789.024)"><path d="M0 1160.44h-37.87" class="st4"/></g><g id="shape37-34" transform="translate(478.632 -1079.58)"><path class="st8" d="M0 1127.84h50.741v25.512H0z"/><text x="17.9" y="1142.99" class="st9">Task</text></g><g id="shape43-37" transform="translate(42.804 -1079.58)"><path class="st8" d="M0 1127.84h210.898v25.512H0z"/><text x="80.09" y="1142.99" class="st9">BaseEventLoop</text></g><g id="shape44-40" transform="translate(429.45 -1079.58)"><path class="st8" d="M0 1127.84h51.024v25.512H0z"/><text x="13.72" y="1142.99" class="st9">Handle</text></g><g id="group50-43" transform="translate(144.851 -1051.23)"><g id="shape51-44" transform="translate(2.699)"><path class="st10" d="M0 1127.84h51.024v25.512H0z"/></g><g id="shape52-46" transform="translate(19.707 -29.055)"><path d="M8.5 1153.35h0Z" class="st10"/></g><g id="shape54-50" transform="rotate(90 14.105 1167.455)"><path d="M0 1153.35h185.67" class="st11"/></g><g id="shape50-53"><path class="st10" d="M0 1127.84h56.422v25.512H0z"/><text x="12.56" y="1142.99" class="st12">call_soon</text></g></g><g id="group81-56" transform="translate(333.636 -1051.23)"><g id="shape82-57" transform="translate(-3.755)"><path class="st10" d="M0 1127.84h51.024v25.512H0z"/></g><g id="shape83-59" transform="translate(13.253 -29.055)"><path d="M8.5 1153.35h0Z" class="st10"/></g><g id="shape85-63" transform="rotate(90 10.88 1164.23)"><path d="M0 1153.35h197.01" class="st11"/></g><g id="shape81-66"><path class="st10" d="M0 1127.84h43.514v25.512H0z"/><text x="5.22" y="1142.99" class="st12">set_result</text></g></g><g id="shape86-69" transform="translate(252.579 -1079.58)"><path class="st8" d="M0 1127.84h124.146v25.512H0z"/><text x="51.12" y="1142.99" class="st9">Future</text></g><g id="group126-72" transform="translate(42.804 -1051.23)"><g id="shape127-73"><path class="st10" d="M0 1127.84h51.024v25.512H0z"/></g><g id="shape128-75" transform="translate(17.008 -29.055)"><path d="M8.5 1153.35h0Z" class="st10"/></g><g id="shape130-79" transform="rotate(90 12.755 1166.105)"><path d="M0 1153.35h354.33" class="st11"/></g><g id="shape126-82"><path class="st10" d="M0 1127.84h51.024v25.512H0z"/><text x="5.62" y="1142.99" class="st12">run_forever</text></g></g><g id="shape131-85" transform="rotate(-90 -312.163 768.617)"><path class="st13" d="M0 1144.85h337.323v8.504H0z"/></g><g id="group132-87" transform="translate(93.544 -1051.23)"><g id="shape133-88"><path class="st10" d="M0 1127.84h51.024v25.512H0z"/></g><g id="shape134-90" transform="translate(17.008 -29.055)"><path d="M8.5 1153.35h0Z" class="st10"/></g><g id="shape136-94" transform="rotate(90 12.755 1166.105)"><path d="M0 1153.35h354.9" class="st11"/></g><g id="shape132-97"><path class="st10" d="M0 1127.84h51.024v25.512H0z"/><text x="7.83" y="1142.99" class="st12">_run_once</text></g></g><g id="shape138-100" transform="translate(72.567 -1024.3)"><path d="M0 1160.44h34.76" class="st4"/></g><g id="shape139-105" transform="rotate(-90 -347.443 682.597)"><path class="st13" d="M0 1144.85h199.016v8.504H0z"/></g><g id="group143-107" transform="translate(426.756 -1051.23)"><g id="shape144-108" transform="translate(-.141)"><path class="st10" d="M0 1127.84h51.024v25.512H0z"/></g><g id="shape145-110" transform="translate(16.866 -29.055)"><path d="M8.5 1153.35h0Z" class="st10"/></g><g id="shape147-114" transform="rotate(90 12.685 1166.035)"><path d="M0 1153.35h338.74" class="st11"/></g><g id="shape143-117"><path class="st10" d="M0 1127.84h50.741v25.512H0z"/><text x="17.66" y="1142.99" class="st12">_run</text></g></g><g id="shape149-120" transform="translate(123.308 -1007.29)"><path d="M0 1160.44h317.09" class="st4"/><text x="185.72" y="1133.4" class="st14">(in a for loop) <tspan x="159.7" dy="1.2em" class="st7">handle = self._ready.popleft() </tspan><tspan x="185.6" dy="1.2em" class="st7">handle._run()</tspan></text></g><g id="shape150-128" transform="translate(452.127 -973.276)"><path d="M0 1146.26h40.14" class="st4"/></g><g id="group152-133" transform="translate(558.426 -1051.23)"><g id="shape153-134" transform="translate(-.141)"><path class="st15" d="M0 1127.84h51.024v25.512H0z"/></g><g id="shape154-136" transform="translate(16.866 -29.055)"><path d="M8.5 1153.35h0Z" class="st15"/></g><g id="shape156-140" transform="rotate(90 12.685 1166.035)"><path d="M0 1153.35h101.48" style="stroke:#4f87bb;stroke-dasharray:3.5,2.5;stroke-linecap:round;stroke-linejoin:round;stroke-width:.5"/></g><g id="shape152-143"><path class="st15" d="M0 1127.84h50.741v25.512H0z"/><text x="13.17" y="1142.99" style="fill:#245685;font-family:Calibri;font-size:.666664em;font-weight:700">co_test</text></g></g><g id="shape157-146" transform="translate(558.426 -1079.58)"><path class="st8" d="M0 1127.84h50.741v25.512H0z"/><text x="9.3" y="1142.99" class="st9">coroutine</text></g><g id="shape159-149" transform="translate(578.836 -942.095)"><path d="M0 1146.26h-70.16" style="marker-end:url(#mrkr3-154);stroke:#c00000;stroke-dasharray:3.5,2.5;stroke-linecap:round;stroke-linejoin:round;stroke-width:.5"/><text x="-40.32" y="1156.62" style="fill:#c00000;font-family:Calibri;font-size:.666664em">return <tspan x="-62.62" dy="1.2em" class="st7">(raise StopIteration)</tspan></text></g><g id="shape160-157" transform="translate(447.875 -831.544)"><path d="M0 1146.26h-324.71" class="st21"/></g><g id="group164-163" transform="translate(478.632 -1051.23)"><g id="shape165-164" transform="translate(-.141)"><path class="st10" d="M0 1127.84h51.024v25.512H0z"/></g><g id="shape166-166" transform="translate(16.866 -29.055)"><path d="M8.5 1153.35h0Z" class="st10"/></g><g id="shape168-170" transform="rotate(90 12.685 1166.035)"><path d="M0 1153.35h199.84" class="st11"/></g><g id="shape164-173"><path class="st10" d="M0 1127.84h50.741v25.512H0z"/><text x="14.24" y="1142.99" class="st12">__step</text></g></g><g id="shape170-176" transform="translate(504.002 -959.103)"><path d="M0 1146.26h68.06" style="marker-end:url(#mrkr4-181);stroke:#4f87bb;stroke-linecap:round;stroke-linejoin:round;stroke-width:.5"/><text x="16.46" y="1140.16" class="st14">self._coro.send(None)</text></g><g id="shape171-183" transform="translate(499.751 -859.89)"><path d="M0 1160.44h-43.87" class="st21"/></g><g id="shape172-188" transform="rotate(-90 -247.288 546.418)"><path class="st13" d="M0 1144.85h92.617v8.504H0z"/></g><g id="shape174-190" transform="translate(297.218 -874.063)"><path d="M0 1160.44h53.78" class="st21"/></g><g id="shape184-195" transform="rotate(-90 -191.126 505.846)"><path class="st13" d="M0 1144.85h161.575v8.504H0z"/></g><g id="shape185-197" transform="rotate(-90 -172.274 472.822)"><path class="st13" d="M0 1144.85h127.559v8.504H0z"/></g><g id="shape186-199" transform="rotate(-90 -180.389 384.913)"><path style="fill:#5b9bd5;stroke:#4f87bb;stroke-linecap:round;stroke-linejoin:round;stroke-width:.5" d="M0 1144.85h17.362v8.504H0z"/></g><g id="shape214-201" transform="translate(46.773 -1010.13)"><path d="M0 1144.14a9.213 9.213 0 0 1 18.43 0 9.213 9.213 0 1 1-18.43 0Z" class="st1"/><text x="7.19" y="1146.54" class="st25">1</text></g><g id="shape328-204" transform="translate(459.214 -790.441)"><path d="M0 1144.14a9.213 9.213 0 0 1 18.43 0 9.213 9.213 0 1 1-18.43 0Z" class="st1"/><text x="7.19" y="1146.54" class="st25">4</text></g><g id="group1040-207" transform="translate(252.579 -1051.23)"><g id="shape1041-208" transform="translate(14.875)"><path class="st10" d="M0 1127.84h51.024v25.512H0z"/></g><g id="shape1042-210" transform="translate(31.883 -29.055)"><path d="M8.5 1153.35h0Z" class="st10"/></g><g id="shape1044-214" transform="rotate(90 20.195 1173.545)"><path d="M0 1153.35h185.67" class="st11"/></g><g id="shape1040-217"><path class="st10" d="M0 1127.84h80.773v25.512H0z"/><text x="4.77" y="1142.99" class="st12">__schedule_callbacks</text></g></g><g id="shape1047-220" transform="translate(173.062 -859.89)"><path d="M0 1146.26h115.65" class="st21"/></g><g id="shape1048-225" transform="rotate(-90 -344.832 631.206)"><path class="st13" d="M0 1144.85h42.52v8.504H0z"/></g><g id="shape189-227" transform="translate(170.227 -892.489)"><path d="M7.09 1153.35h18v17.01H14.57" class="st4"/><text x="27.84" y="1158.89" class="st14">create &#38; apend handle to  <tspan x="26.03" dy="1.2em" class="st7">BaseEvenLoop._ready</tspan></text></g><g id="shape1049-234" transform="rotate(-90 -284.88 571.254)"><path class="st13" d="M0 1144.85h70.866v8.504H0z"/></g><g id="group1052-236" transform="translate(163.064 -847.134)"><path style="fill:#5b9ad4;fill-opacity:0;stroke:#5b9ad4;stroke-linecap:round;stroke-linejoin:round;stroke-width:1" d="M0 1068.31h138.756v85.039H0z" id="shape1052-237"/><g id="shape1053-239" transform="translate(0 -67.436)"><path d="M0 1153.35h56.91l7.09-7.09v-10.51H0v17.6Z" class="st15"/><text x="4" y="1146.95" style="fill:#5c9bd4;font-family:Calibri;font-size:.666664em;font-weight:700">for in callbacks</text></g></g><g id="shape1455-242" transform="rotate(-90 -127.157 569.815)"><path class="st13" d="M0 1144.85h85.417v8.504H0z"/></g><g id="shape1461-244" transform="translate(123.308 -803.197)"><path d="M0 1160.44h317.09" class="st4"/><text x="157.96" y="1133.4" class="st14">(in a for loop) <tspan x="131.95" dy="1.2em" class="st7">handle = self._ready.popleft() </tspan><tspan x="157.85" dy="1.2em" class="st7">handle._run()</tspan></text></g><g id="shape1462-252" transform="rotate(-90 -286.793 743.247)"><path class="st13" d="M0 1144.85h99.213v8.504H0z"/></g><g id="group1463-254" transform="translate(377.15 -1051.23)"><g id="shape1464-255" transform="translate(-.141)"><path class="st10" d="M0 1127.84h51.024v25.512H0z"/></g><g id="shape1465-257" transform="translate(16.866 -29.055)"><path d="M8.5 1153.35h0Z" class="st10"/></g><g id="shape1467-261" transform="rotate(90 12.685 1166.035)"><path d="M0 1153.35h325.98" class="st11"/></g><g id="shape1463-264"><path class="st10" d="M0 1127.84h50.741v25.512H0z"/><text x="4.36" y="1138.2" class="st12">_run_until_c<tspan x="5.61" dy="1.2em" class="st7">omplete_cb</tspan></text></g></g><g id="shape1468-268" transform="rotate(-90 -159.236 587.342)"><path class="st13" d="M0 1144.85h56.693v8.504H0z"/></g><g id="group1470-270" transform="translate(201.555 -1051.23)"><g id="shape1471-271" transform="translate(-.141)"><path class="st10" d="M0 1127.84h51.024v25.512H0z"/></g><g id="shape1472-273" transform="translate(16.866 -29.055)"><path d="M8.5 1153.35h0Z" class="st10"/></g><g id="shape1474-277" transform="rotate(90 12.685 1166.035)"><path d="M0 1153.35h306.14" class="st11"/></g><g id="shape1470-280"><path class="st10" d="M0 1127.84h50.741v25.512H0z"/><text x="18.09" y="1142.99" class="st12">stop</text></g></g><g id="shape1475-283" transform="rotate(-90 -256.954 665.219)"><path class="st13" d="M0 1144.85h22.677v8.504H0z"/></g><g id="shape1476-285" transform="translate(402.521 -774.851)"><path d="M0 1160.44h-163.86" class="st4"/></g><g id="shape1477-290" transform="translate(226.926 -752.174)"><path d="M0 1160.44h171.2" class="st21"/></g><g id="shape1479-295" transform="translate(402.521 -732.331)"><path d="M0 1160.44h45.35" class="st21"/></g><g id="shape1481-300" transform="translate(119.056 -689.811)"><path d="M0 1146.26h-47.33" class="st21"/></g><g id="shape1482-305" transform="translate(64.064 -689.811)"><path d="M0 1146.26h-36.33" class="st21"/><text x="-17.29" y="1154.03" class="st14">if self._stopping: <tspan x="-17.67" dy="1.2em" class="st7">                    </tspan>break <tspan x="-40.45" dy="1.2em" class="st7">(return to run_until_complete, </tspan><tspan x="-23.3" dy="1.2em" class="st7">thus return to main)</tspan></text></g><g id="shape1483-314" transform="translate(447.875 -703.985)"><path d="M0 1146.26h-324.57" class="st21"/></g><g id="shape1488-319" transform="translate(114.804 -811.701)"><path d="M0 1146.26h-41.98" class="st21"/></g><g id="shape1489-324" transform="translate(68.316 -803.197)"><path d="M0 1160.44h39.01" class="st4"/></g><g id="shape1490-329" transform="translate(144.851 -745.087)"><path style="fill:none;stroke:none;stroke-linecap:round;stroke-linejoin:round;stroke-width:2" d="M0 1130.67h87.183v22.677H0z"/><text x="10.15" y="1144.41" style="fill:#5c5c5c;font-family:Calibri;font-size:.666664em">self._stopping = true</text></g><g id="shape1493-332" transform="translate(459.214 -990.993)"><path d="M0 1144.14a9.213 9.213 0 0 1 18.43 0 9.213 9.213 0 1 1-18.43 0Z" class="st1"/><text x="7.19" y="1146.54" class="st25">2</text></g><g id="shape1494-335" transform="translate(304.017 -868.394)"><path d="M0 1144.14a9.213 9.213 0 0 1 18.43 0 9.213 9.213 0 1 1-18.43 0Z" class="st1"/><text x="7.19" y="1146.54" class="st25">3</text></g><g id="shape1495-338" transform="translate(205.513 -735.874)"><path d="M0 1144.14a9.213 9.213 0 0 1 18.43 0 9.213 9.213 0 1 1-18.43 0Z" class="st1"/><text x="7.19" y="1146.54" class="st25">5</text></g><g id="shape1496-341" transform="translate(197.009 -542.41)"><path class="st30" d="M0 1139.18h92.126v14.173H0z"/><text x="5.29" y="1148.66" class="st31">_run_until_complete_cb</text></g><g id="group1497-344" transform="matrix(1 0 0 -1 34.017 1735.95)"><g id="shape1509-367" transform="translate(0 -56.693)"><path class="st33" d="M0 1139.18h63.779v14.173H0z"/><text x="14.55" y="-1143.86" transform="scale(1 -1)" class="st34">def <tspan class="st35">__step</tspan></text></g><g id="shape1510-371" transform="translate(0 -42.52)"><path class="st36" d="M0 1139.18h63.779v14.173H0z"/><text x="4.4" y="-1143.86" transform="scale(1 -1)" class="st34">_loop:EventLoop</text></g><g id="shape1511-374" transform="translate(0 -28.346)"><path class="st36" d="M0 1139.18h63.779v14.173H0z"/><text x="4.86" y="-1143.86" transform="scale(1 -1)" class="st34">_coro: coroutine</text></g><g id="shape1512-377" transform="translate(0 -14.173)"><path class="st36" d="M0 1139.18h63.779v14.173H0z"/><text x="9.55" y="-1143.86" transform="scale(1 -1)" class="st34">_callbacks:list</text></g><g id="shape1513-380"><path class="st37" d="M0 1139.18h63.779v14.173H0z"/><text x="24.64" y="-1143.86" transform="scale(1 -1)" class="st25">Task</text></g></g><g id="shape1514-383" transform="translate(97.796 -606.189)"><path d="M1.91 1153.35H8.84" class="st38"/></g><g id="group1515-392" transform="matrix(1 0 0 -1 34.017 1679.25)"><g id="shape1528-417" transform="translate(0 -42.52)"/><g id="shape1529-419" transform="translate(0 -28.346)"><path class="st36" d="M0 1139.18h63.779v14.173H0z"/><text x="3.75" y="-1143.86" transform="scale(1 -1)" class="st34">_stopping = False</text></g><g id="shape1530-422" transform="translate(0 -14.173)"><path class="st36" d="M0 1139.18h63.779v14.173H0z"/><text x="9.33" y="-1143.86" transform="scale(1 -1)" class="st34">_ready:deque</text></g><g id="shape1531-425"><path class="st37" d="M0 1139.18h63.779v14.173H0z"/><text x="7.05" y="-1143.86" transform="scale(1 -1)" class="st25">BaseEventLoop</text></g></g><g id="group1532-428" transform="translate(111.969 -599.103)"><g id="shape1538-439" transform="translate(85.04)"/><g id="shape1539-441" transform="translate(42.52)"/><g id="shape1540-443"><path class="st36" d="M0 1139.18h42.52v14.173H0z"/><text x="8.1" y="1148.66" class="st34">handle0</text></g></g><g id="shape1541-446" transform="translate(97.796 -535.323)"><path d="M1.91 1153.35H8.84" class="st38"/></g><g id="shape1542-453" transform="translate(111.969 -528.237)"><path class="st43" d="M0 1139.18h42.52v14.173H0z"/><text x="9.23" y="1148.66" class="st34">co_test</text></g><g id="group1543-456" transform="matrix(1 0 0 -1 154.489 1778.46)"><g id="shape1556-481" transform="translate(0 -42.52)"/><g id="shape1557-483" transform="translate(0 -28.346)"><path class="st36" d="M0 1139.18h56.693v14.173H0z"/><text x="21.59" y="-1143.86" transform="scale(1 -1)" class="st34">args</text></g><g id="shape1558-486" transform="translate(0 -14.173)"><path class="st36" d="M0 1139.18h56.693v14.173H0z"/><text x="15.38" y="-1143.86" transform="scale(1 -1)" class="st34">callback</text></g><g id="shape1559-489"><path class="st37" d="M0 1139.18h56.693v14.173H0z"/><text x="16.83" y="-1143.86" transform="scale(1 -1)" class="st25">Handle</text></g></g><g id="shape1560-492" transform="rotate(180 77.244 899.86)"><path d="M1.91 1153.35h48.74" class="st38"/></g><g id="shape1561-499" transform="translate(182.836 -528.237)"><path d="M0 1144.79v-33.96h-49.61v-28.35" class="st44"/></g><g id="shape1562-505" transform="translate(26.93 -620.363)"><path d="M-1.47 1153.35H-7.8v99.21H7.09" class="st44"/></g><g id="shape1563-510" transform="translate(97.796 -549.496)"><path d="M1.91 1153.35H8.84" class="st38"/></g><g id="group1564-517" transform="translate(111.969 -542.41)"><g id="shape1570-528" transform="translate(85.04)"/><g id="shape1571-530" transform="translate(42.52)"/><g id="shape1572-532"><path class="st36" d="M0 1139.18h42.52v14.173H0z"/><text x="5.65" y="1148.66" class="st34">function0</text></g></g><g id="shape1573-535" transform="rotate(.437 72187.693 21028.746)"><path d="M1.91 1153.35h35.42" class="st38"/></g><g id="group1574-542" transform="matrix(1 0 0 -1 345.828 1735.95)"><g id="shape1586-565" transform="translate(0 -56.693)"><path class="st33" d="M0 1139.18h63.779v14.173H0z"/><text x="14.55" y="-1143.86" transform="scale(1 -1)" class="st34">def <tspan class="st35">__step</tspan></text></g><g id="shape1587-569" transform="translate(0 -42.52)"><path class="st36" d="M0 1139.18h63.779v14.173H0z"/><text x="4.4" y="-1143.86" transform="scale(1 -1)" class="st34">_loop:EventLoop</text></g><g id="shape1588-572" transform="translate(0 -28.346)"><path class="st36" d="M0 1139.18h63.779v14.173H0z"/><text x="4.86" y="-1143.86" transform="scale(1 -1)" class="st34">_coro: coroutine</text></g><g id="shape1589-575" transform="translate(0 -14.173)"><path class="st36" d="M0 1139.18h63.779v14.173H0z"/><text x="9.55" y="-1143.86" transform="scale(1 -1)" class="st34">_callbacks:list</text></g><g id="shape1590-578"><path class="st37" d="M0 1139.18h63.779v14.173H0z"/><text x="24.64" y="-1143.86" transform="scale(1 -1)" class="st25">Task</text></g></g><g id="shape1591-581" transform="translate(409.599 -606.189)"><path d="M1.91 1153.35H8.13" class="st38"/></g><g id="group1592-588" transform="matrix(1 0 0 -1 345.828 1679.25)"><g id="shape1605-613" transform="translate(0 -42.52)"/><g id="shape1606-615" transform="translate(0 -28.346)"><path class="st36" d="M0 1139.18h63.779v14.173H0z"/><text x="3.75" y="-1143.86" transform="scale(1 -1)" class="st34">_stopping = False</text></g><g id="shape1607-618" transform="translate(0 -14.173)"><path class="st36" d="M0 1139.18h63.779v14.173H0z"/><text x="9.33" y="-1143.86" transform="scale(1 -1)" class="st34">_ready:deque</text></g><g id="shape1608-621"><path class="st37" d="M0 1139.18h63.779v14.173H0z"/><text x="7.05" y="-1143.86" transform="scale(1 -1)" class="st25">BaseEventLoop</text></g></g><g id="shape1609-624" transform="translate(409.599 -535.323)"><path d="M1.9 1153.35h6.23" class="st38"/></g><g id="shape1610-631" transform="translate(423.78 -528.237)"><path class="st43" d="M0 1139.18h41.811v14.173H0z"/><text x="8.88" y="1148.66" class="st34">co_test</text></g><g id="group1611-634" transform="matrix(1 0 0 -1 465.591 1778.47)"><g id="shape1624-659" transform="translate(0 -42.52)"/><g id="shape1625-661" transform="translate(0 -28.346)"><path class="st36" d="M0 1139.18h56.693v14.173H0z"/><text x="21.59" y="-1143.86" transform="scale(1 -1)" class="st34">args</text></g><g id="shape1626-664" transform="translate(0 -14.173)"><path class="st36" d="M0 1139.18h56.693v14.173H0z"/><text x="15.38" y="-1143.86" transform="scale(1 -1)" class="st34">callback</text></g><g id="shape1627-667"><path class="st37" d="M0 1139.18h56.693v14.173H0z"/><text x="16.83" y="-1143.86" transform="scale(1 -1)" class="st25">Handle</text></g></g><g id="shape1628-670" transform="rotate(180 232.795 899.86)"><path d="M1.91 1153.35h48.03" class="st38"/></g><g id="shape1629-677" transform="translate(338.741 -620.363)"><path d="M-1.47 1153.35h-5.62v99.21H7.09" class="st44"/></g><g id="shape1630-682" transform="translate(409.607 -549.496)"><path d="M1.91 1153.35H8.13" class="st38"/></g><g id="group1631-689" transform="translate(423.78 -542.41)"><g id="shape1637-700" transform="translate(85.04)"/><g id="shape1638-702" transform="translate(42.52)"/><g id="shape1639-704"><path class="st36" d="M0 1139.18h42.52v14.173H0z"/><text x="5.65" y="1148.66" class="st34">function0</text></g></g><g id="shape1640-707" transform="translate(466.3 -549.497)"><path d="M1.91 1153.35h33.86" class="st38"/></g><g id="group1641-714" transform="translate(423.78 -599.103)"><g id="shape1647-725" transform="translate(85.04)"/><g id="shape1648-727" transform="translate(42.52)"/><g id="shape1649-729"><path d="M0 1153.35h42.52v-14.17H0v14.17Z" class="st46"/><text x="8.4" y="1148.66" class="st34">(empty)</text></g></g><g id="shape1650-732" transform="rotate(90.573 543.895 1098.661)"><path d="M1.91 1153.35h62.92" class="st38"/></g><g id="group1651-739" transform="translate(473.387 -599.103)"><g id="shape1657-750" transform="translate(85.04)"/><g id="shape1658-752" transform="translate(42.52)"/><g id="shape1659-754"><path class="st48" d="M0 1139.18h42.52v14.173H0z"/><text x="2.59" y="1148.66" class="st34">handle(var)</text></g></g><g id="shape1755-757" transform="translate(10.63 -625.323)"><path d="M0 1144.14a9.213 9.213 0 0 1 18.43 0 9.213 9.213 0 1 1-18.43 0Z" class="st1"/><text x="7.19" y="1146.54" class="st25">1</text></g><g id="shape1756-760" transform="translate(320.316 -625.323)"><path d="M0 1144.14a9.213 9.213 0 0 1 18.43 0 9.213 9.213 0 1 1-18.43 0Z" class="st1"/><text x="7.19" y="1146.54" class="st25">2</text></g><g id="shape1758-763" transform="translate(508.825 -542.41)"><path class="st30" d="M0 1139.18h92.126v14.173H0z"/><text x="5.29" y="1148.66" class="st31">_run_until_complete_cb</text></g><g id="shape1953-766" transform="translate(197.009 -379.418)"><path class="st30" d="M0 1139.18h92.126v14.173H0z"/><text x="5.29" y="1148.66" class="st49">_run_until_complete_cb</text></g><g id="group1954-769" transform="matrix(1 0 0 -1 34.017 1898.94)"><g id="shape1966-792" transform="translate(0 -56.693)"><path class="st33" d="M0 1139.18h63.779v14.173H0z"/><text x="14.55" y="-1143.86" transform="scale(1 -1)" class="st34">def <tspan class="st35">__step</tspan></text></g><g id="shape1967-796" transform="translate(0 -42.52)"><path class="st36" d="M0 1139.18h63.779v14.173H0z"/><text x="4.4" y="-1143.86" transform="scale(1 -1)" class="st34">_loop:EventLoop</text></g><g id="shape1968-799" transform="translate(0 -28.346)"><path class="st36" d="M0 1139.18h63.779v14.173H0z"/><text x="4.86" y="-1143.86" transform="scale(1 -1)" class="st34">_coro: coroutine</text></g><g id="shape1969-802" transform="translate(0 -14.173)"><path class="st36" d="M0 1139.18h63.779v14.173H0z"/><text x="9.55" y="-1143.86" transform="scale(1 -1)" class="st34">_callbacks:list</text></g><g id="shape1970-805"><path class="st37" d="M0 1139.18h63.779v14.173H0z"/><text x="24.64" y="-1143.86" transform="scale(1 -1)" class="st25">Task</text></g></g><g id="shape1971-808" transform="translate(97.796 -443.197)"><path d="M1.91 1153.35H8.84" class="st38"/></g><g id="group1972-815" transform="matrix(1 0 0 -1 28.912 1842.24)"><g id="shape1985-840" transform="translate(0 -42.52)"/><g id="shape1986-842" transform="translate(0 -28.346)"><path class="st36" d="M0 1139.18h68.885v14.173H0z"/><text x="6.3" y="-1143.86" transform="scale(1 -1)" class="st34">_stopping = False</text></g><g id="shape1987-845" transform="translate(0 -14.173)"><path class="st36" d="M0 1139.18h68.885v14.173H0z"/><text x="11.88" y="-1143.86" transform="scale(1 -1)" class="st34">_ready:deque</text></g><g id="shape1988-848"><path class="st37" d="M0 1139.18h68.885v14.173H0z"/><text x="9.6" y="-1143.86" transform="scale(1 -1)" class="st25">BaseEventLoop</text></g></g><g id="shape1998-851" transform="translate(97.796 -372.331)"><path d="M1.91 1153.35H8.84" class="st38"/></g><g id="shape1999-858" transform="translate(111.969 -365.245)"><path class="st43" d="M0 1139.18h41.811v14.173H0z"/><text x="8.88" y="1148.66" class="st34">co_test</text></g><g id="group2000-861" transform="matrix(1 0 0 -1 154.489 1941.46)"><g id="shape2013-886" transform="translate(0 -42.52)"/><g id="shape2014-888" transform="translate(0 -28.346)"><path class="st36" d="M0 1139.18h56.693v14.173H0z"/><text x="21.59" y="-1143.86" transform="scale(1 -1)" class="st34">args</text></g><g id="shape2015-891" transform="translate(0 -14.173)"><path class="st36" d="M0 1139.18h56.693v14.173H0z"/><text x="15.38" y="-1143.86" transform="scale(1 -1)" class="st34">callback</text></g><g id="shape2016-894"><path class="st50" d="M0 1139.18h56.693v14.173H0z"/><text x="16.83" y="-1143.86" transform="scale(1 -1)" class="st25">Handle</text></g></g><g id="shape2017-897" transform="rotate(180 77.244 981.36)"><path d="M1.9 1153.35h48.75" class="st38"/></g><g id="shape2019-904" transform="translate(24.378 -457.371)"><path d="M-4.03 1153.35h-1.21v99.21H9.64" class="st44"/></g><g id="shape2020-909" transform="translate(97.796 -386.504)"><path d="M1.91 1153.35H8.13" class="st38"/></g><g id="group2031-916" transform="matrix(1 0 0 -1 345.683 1898.94)"><g id="shape2043-939" transform="translate(0 -56.693)"><path class="st33" d="M0 1139.18h63.779v14.173H0z"/><text x="14.55" y="-1143.86" transform="scale(1 -1)" class="st34">def <tspan class="st35">__step</tspan></text></g><g id="shape2044-943" transform="translate(0 -42.52)"><path class="st36" d="M0 1139.18h63.779v14.173H0z"/><text x="4.4" y="-1143.86" transform="scale(1 -1)" class="st34">_loop:EventLoop</text></g><g id="shape2045-946" transform="translate(0 -28.346)"><path class="st36" d="M0 1139.18h63.779v14.173H0z"/><text x="4.86" y="-1143.86" transform="scale(1 -1)" class="st34">_coro: coroutine</text></g><g id="shape2046-949" transform="translate(0 -14.173)"><path class="st36" d="M0 1139.18h63.779v14.173H0z"/><text x="9.55" y="-1143.86" transform="scale(1 -1)" class="st34">_callbacks:list</text></g><g id="shape2047-952"><path class="st37" d="M0 1139.18h63.779v14.173H0z"/><text x="24.64" y="-1143.86" transform="scale(1 -1)" class="st25">Task</text></g></g><g id="shape2048-955" transform="translate(409.455 -443.197)"><path d="M1.91 1153.35H8.13" class="st38"/></g><g id="group2049-962" transform="matrix(1 0 0 -1 345.683 1842.24)"><g id="shape2062-987" transform="translate(0 -42.52)"/><g id="shape2063-989" transform="translate(0 -28.346)"><path class="st36" d="M0 1139.18h63.779v14.173H0z"/><text x="3.75" y="-1143.86" transform="scale(1 -1)" class="st34">_stopping = False</text></g><g id="shape2064-992" transform="translate(0 -14.173)"><path class="st36" d="M0 1139.18h63.779v14.173H0z"/><text x="9.33" y="-1143.86" transform="scale(1 -1)" class="st34">_ready:deque</text></g><g id="shape2065-995"><path class="st37" d="M0 1139.18h63.779v14.173H0z"/><text x="7.05" y="-1143.86" transform="scale(1 -1)" class="st25">BaseEventLoop</text></g></g><g id="shape2066-998" transform="translate(409.455 -372.331)"><path d="M1.9 1153.35h6.23" class="st38"/></g><g id="shape2067-1005" transform="translate(423.636 -365.245)"><path class="st43" d="M0 1139.18h42.52v14.173H0z"/><text x="9.23" y="1148.66" class="st34">co_test</text></g><g id="shape2086-1008" transform="translate(338.597 -457.37)"><path d="M-1.47 1153.35h-5.62v99.21H7.09" class="st44"/></g><g id="shape2087-1013" transform="translate(409.463 -386.504)"><path d="M1.91 1153.35H8.13" class="st38"/></g><g id="group2098-1020" transform="translate(423.636 -436.111)"><g id="shape2104-1031" transform="translate(85.04)"/><g id="shape2105-1033" transform="translate(42.52)"/><g id="shape2106-1035"><path d="M0 1153.35h42.52v-14.17H0v14.17Z" class="st46"/><text x="8.4" y="1148.66" class="st34">(empty)</text></g></g><g id="shape2107-1038" transform="translate(515.769 -443.197)"><path d="M2.27 1153.35H1.19h.36" style="marker-end:url(#mrkr4-1046);marker-start:url(#mrkr10-1044);stroke:#909090;stroke-linecap:round;stroke-linejoin:round;stroke-width:.5"/></g><g id="group2108-1047" transform="translate(473.242 -436.111)"><g id="shape2114-1058" transform="translate(85.04)"/><g id="shape2115-1060" transform="translate(42.52)"/><g id="shape2116-1062"><path class="st48" d="M0 1139.18h42.52v14.173H0z"/><text x="2.59" y="1148.66" class="st34">handle(var)</text></g></g><g id="shape2117-1065" transform="translate(10.486 -462.331)"><path d="M0 1144.14a9.213 9.213 0 0 1 18.43 0 9.213 9.213 0 1 1-18.43 0Z" class="st1"/><text x="7.19" y="1146.54" class="st25">3</text></g><g id="shape2118-1068" transform="translate(322.442 -462.331)"><path d="M0 1144.14a9.213 9.213 0 0 1 18.43 0 9.213 9.213 0 1 1-18.43 0Z" class="st1"/><text x="7.19" y="1146.54" class="st25">4</text></g><g id="shape2119-1071" transform="translate(508.681 -379.418)"><path class="st30" d="M0 1139.18h92.126v14.173H0z"/><text x="5.29" y="1148.66" class="st49">_run_until_complete_cb</text></g><g id="group2149-1074" transform="translate(111.969 -436.111)"><g id="shape2155-1085" transform="translate(85.04)"/><g id="shape2156-1087" transform="translate(42.52)"/><g id="shape2157-1089"><path class="st36" d="M0 1139.18h42.52v14.173H0z"/><text x="8.1" y="1148.66" class="st34">handle0</text></g></g><g id="group2158-1092" transform="matrix(1 0 0 -1 211.182 1856.42)"><g id="shape2171-1117" transform="translate(0 -42.52)"/><g id="shape2172-1119" transform="translate(0 -28.346)"><path class="st36" d="M0 1139.18h56.693v14.173H0z"/><text x="21.59" y="-1143.86" transform="scale(1 -1)" class="st34">args</text></g><g id="shape2173-1122" transform="translate(0 -14.173)"><path class="st36" d="M0 1139.18h56.693v14.173H0z"/><text x="15.38" y="-1143.86" transform="scale(1 -1)" class="st34">callback</text></g><g id="shape2174-1125"><path class="st37" d="M0 1139.18h56.693v14.173H0z"/><text x="16.83" y="-1143.86" transform="scale(1 -1)" class="st25">Handle</text></g></g><g id="shape2175-1128" transform="translate(154.489 -443.197)"><path d="M1.91 1153.35h48.74" class="st38"/></g><g id="group2176-1135" transform="translate(111.969 -379.418)"><g id="shape2182-1146" transform="translate(85.04)"/><g id="shape2183-1148" transform="translate(42.52)"/><g id="shape2184-1150"><path d="M0 1153.35h42.52v-14.17H0v14.17Z" class="st46"/><text x="8.4" y="1148.66" class="st34">(empty)</text></g></g><g id="group2224-1153" transform="matrix(1 0 0 -1 34.017 2061.93)"><g id="shape2236-1176" transform="translate(0 -56.693)"><path class="st33" d="M0 1139.18h63.779v14.173H0z"/><text x="14.55" y="-1143.86" transform="scale(1 -1)" class="st34">def <tspan class="st35">__step</tspan></text></g><g id="shape2237-1180" transform="translate(0 -42.52)"><path class="st36" d="M0 1139.18h63.779v14.173H0z"/><text x="4.4" y="-1143.86" transform="scale(1 -1)" class="st34">_loop:EventLoop</text></g><g id="shape2238-1183" transform="translate(0 -28.346)"><path class="st36" d="M0 1139.18h63.779v14.173H0z"/><text x="4.86" y="-1143.86" transform="scale(1 -1)" class="st34">_coro: coroutine</text></g><g id="shape2239-1186" transform="translate(0 -14.173)"><path class="st36" d="M0 1139.18h63.779v14.173H0z"/><text x="9.55" y="-1143.86" transform="scale(1 -1)" class="st34">_callbacks:list</text></g><g id="shape2240-1189"><path class="st37" d="M0 1139.18h63.779v14.173H0z"/><text x="24.64" y="-1143.86" transform="scale(1 -1)" class="st25">Task</text></g></g><g id="shape2241-1192" transform="translate(97.796 -280.205)"><path d="M1.91 1153.35H8.13" class="st38"/></g><g id="group2242-1199" transform="matrix(1 0 0 -1 34.017 2005.24)"><g id="shape2255-1224" transform="translate(0 -42.52)"/><g id="shape2256-1226" transform="translate(0 -28.346)"><path class="st36" d="M0 1139.18h63.779v14.173H0z"/><text x="4.54" y="-1143.86" transform="scale(1 -1)" class="st34">_stopping = True</text></g><g id="shape2257-1229" transform="translate(0 -14.173)"><path class="st36" d="M0 1139.18h63.779v14.173H0z"/><text x="9.33" y="-1143.86" transform="scale(1 -1)" class="st34">_ready:deque</text></g><g id="shape2258-1232"><path class="st37" d="M0 1139.18h63.779v14.173H0z"/><text x="7.05" y="-1143.86" transform="scale(1 -1)" class="st25">BaseEventLoop</text></g></g><g id="shape2259-1235" transform="translate(97.796 -209.339)"><path d="M1.91 1153.35H8.84" class="st38"/></g><g id="shape2260-1242" transform="translate(111.969 -202.252)"><path class="st43" d="M0 1139.18h41.811v14.173H0z"/><text x="8.88" y="1148.66" class="st34">co_test</text></g><g id="shape2279-1245" transform="translate(26.93 -294.378)"><path d="M-1.47 1153.35H-7.8v99.21H7.09" class="st44"/></g><g id="shape2280-1250" transform="translate(97.796 -223.512)"><path d="M1.91 1153.35H8.13" class="st38"/></g><g id="shape2349-1257" transform="translate(10.63 -301.465)"><path d="M0 1144.14a9.213 9.213 0 0 1 18.43 0 9.213 9.213 0 1 1-18.43 0Z" class="st1"/><text x="7.19" y="1146.54" class="st25">5</text></g><g id="group2380-1260" transform="translate(111.969 -216.426)"><g id="shape2386-1271" transform="translate(85.04)"/><g id="shape2387-1273" transform="translate(42.52)"/><g id="shape2388-1275"><path d="M0 1153.35h42.52v-14.17H0v14.17Z" class="st46"/><text x="8.4" y="1148.66" class="st34">(empty)</text></g></g><g id="group2408-1278" transform="translate(111.969 -273.119)"><g id="shape2414-1289" transform="translate(85.04)"/><g id="shape2415-1291" transform="translate(42.52)"/><g id="shape2416-1293"><path d="M0 1153.35h42.52v-14.17H0v14.17Z" class="st46"/><text x="8.4" y="1148.66" class="st34">(empty)</text></g></g><g id="group2417-1296" transform="translate(423.775 -379.418)"><g id="shape2423-1307" transform="translate(85.04)"/><g id="shape2424-1309" transform="translate(42.52)"/><g id="shape2425-1311"><path d="M0 1153.35h42.52v-14.17H0v14.17Z" class="st46"/><text x="8.4" y="1148.66" class="st34">(empty)</text></g></g><g id="shape2491-1314" transform="rotate(180 105.591 945.925)"><path d="M1.91 1153.35H15.22" class="st38"/></g><g id="group2492-1321" transform="translate(147.403 -407.764)"><g id="shape2498-1332" transform="translate(85.04)"/><g id="shape2499-1334" transform="translate(42.52)"/><g id="shape2500-1336"><path class="st36" d="M0 1139.18h42.52v14.173H0z"/><text x="14.04" y="1148.66" class="st34">arg0</text></g></g><g id="shape2502-1339" transform="translate(97.796 -397.134)"><path d="M8.56 1149.81h62.31v-7.09" class="st44"/></g><g id="shape2503-1344" transform="translate(289.135 -386.504)"><path d="M8.56 1153.35h5.53v-42.52h-35.35" class="st44"/></g><g id="group2522-1349" transform="matrix(1 0 0 -1 522.993 1856.42)"><g id="shape2535-1374" transform="translate(0 -42.52)"/><g id="shape2536-1376" transform="translate(0 -28.346)"><path class="st36" d="M0 1139.18h56.693v14.173H0z"/><text x="21.59" y="-1143.86" transform="scale(1 -1)" class="st34">args</text></g><g id="shape2537-1379" transform="translate(0 -14.173)"><path class="st36" d="M0 1139.18h56.693v14.173H0z"/><text x="15.38" y="-1143.86" transform="scale(1 -1)" class="st34">callback</text></g><g id="shape2538-1382"><path class="st37" d="M0 1139.18h56.693v14.173H0z"/><text x="16.83" y="-1143.86" transform="scale(1 -1)" class="st25">Handle</text></g></g><g id="shape2540-1385" transform="rotate(180 261.496 945.925)"><path d="M1.91 1153.35H15.22" class="st38"/></g><g id="group2541-1392" transform="translate(459.214 -407.764)"><g id="shape2547-1403" transform="translate(85.04)"/><g id="shape2548-1405" transform="translate(42.52)"/><g id="shape2549-1407"><path class="st36" d="M0 1139.18h42.52v14.173H0z"/><text x="14.04" y="1148.66" class="st34">arg0</text></g></g><g id="shape2550-1410" transform="translate(600.807 -386.504)"><path d="M8.56 1153.35h5.67v-42.52h-35.35" class="st44"/></g><g id="shape2552-1415" transform="translate(409.463 -397.134)"><path d="M8.56 1149.81h62.45v-7.09" class="st44"/></g><g id="shape2603-1420" transform="translate(196.87 -216.426)"><path class="st30" d="M0 1139.18h92.126v14.173H0z"/><text x="5.29" y="1148.66" class="st49">_run_until_complete_cb</text></g><g id="group2605-1423" transform="matrix(1 0 0 -1 211.182 2019.41)"><g id="shape2618-1448" transform="translate(0 -42.52)"/><g id="shape2619-1450" transform="translate(0 -28.346)"><path class="st36" d="M0 1139.18h56.693v14.173H0z"/><text x="21.59" y="-1143.86" transform="scale(1 -1)" class="st34">args</text></g><g id="shape2620-1453" transform="translate(0 -14.173)"><path class="st36" d="M0 1139.18h56.693v14.173H0z"/><text x="15.38" y="-1143.86" transform="scale(1 -1)" class="st34">callback</text></g><g id="shape2621-1456"><path class="st50" d="M0 1139.18h56.693v14.173H0z"/><text x="16.83" y="-1143.86" transform="scale(1 -1)" class="st25">Handle</text></g></g><g id="shape2622-1459" transform="rotate(180 105.591 1027.42)"><path d="M1.91 1153.35H15.22" class="st38"/></g><g id="group2623-1466" transform="translate(147.403 -244.772)"><g id="shape2629-1477" transform="translate(85.04)"/><g id="shape2630-1479" transform="translate(42.52)"/><g id="shape2631-1481"><path class="st36" d="M0 1139.18h42.52v14.173H0z"/><text x="14.04" y="1148.66" class="st34">arg0</text></g></g><g id="shape2632-1484" transform="translate(288.996 -223.512)"><path d="M8.56 1153.35h5.67v-42.52h-35.35" class="st44"/></g><g id="shape2633-1489" transform="translate(97.796 -234.142)"><path d="M8.56 1149.81h62.31v-7.09" class="st44"/></g><g id="shape161-1494" transform="translate(359.645 -868.885)"><path d="M0 1160.44h139.82" class="st21"/></g><g id="shape173-1499" transform="translate(499.751 -953.433)"><path d="M0 1160.44h-133.12" class="st4"/><text x="-149.35" y="1143.4" class="st14">except StopIteration as exc: <tspan x="-147.35" dy="1.2em" class="st7">... </tspan><tspan x="-149.32" dy="1.2em" class="st7">     </tspan>self.set_result(exc.value)</text></g><g id="shape2222-1507" transform="translate(216.71 -329.811)"><path d="M-4.25 1123.59H0v29.76h-4.25" class="st52"/><text x="4" y="1136.07" class="st53">will be <tspan x="4" dy="1.2em" class="st7">abandoned</tspan></text></g><g id="shape2634-1512" transform="translate(279.214 -257.528)"><path d="M-4.25 1123.59H0v29.76h-4.25" class="st52"/><text x="4" y="1136.07" class="st53">will be <tspan x="4" dy="1.2em" class="st7">abandoned</tspan></text></g></svg>