<svg xmlns="http://www.w3.org/2000/svg" xmlns:xlink="http://www.w3.org/1999/xlink" width="1270" height="1552" viewBox="0 0 635 776" xml:space="preserve" color-interpolation-filters="sRGB" style="fill:none;fill-rule:evenodd;font-size:12px;overflow:visible;stroke-linecap:square;stroke-miterlimit:3"><style>.st1{fill:#ec7d31;stroke:#fff;stroke-width:1}.st1,.st4,.st5{stroke-linecap:round;stroke-linejoin:round}.st4{fill:#fff;stroke:#a5a5a5;stroke-width:2}.st5{stroke:#909090;stroke-dasharray:3.5,2.5;stroke-width:.5}.st6{fill:#5c5c5c;font-family:Calibri;font-size:.666664em;font-weight:700}.st7,.st8{fill:#ffc000;stroke:#e0a800;stroke-linecap:round;stroke-linejoin:round;stroke-width:.5}.st8{fill:#5b9ad4;stroke:#fff;stroke-width:1}.st9{fill:#fff;font-family:Calibri;font-size:.666664em;font-weight:700}.st10,.st11{stroke:#e0a800}.st10{marker-end:url(#mrkr4-88);stroke-linecap:round;stroke-linejoin:round;stroke-width:.5}.st11{fill:#e0a800;fill-opacity:1;stroke-opacity:1;stroke-width:.13368983957219}.st12{fill:#896600;font-family:Calibri;font-size:.666664em}.st13{font-size:1em}.st14,.st16{stroke-linecap:round;stroke-linejoin:round}.st14{marker-end:url(#mrkr3-102);stroke:#e0a800;stroke-dasharray:3.5,2.5;stroke-width:.5}.st16{fill:#fff;stroke:#5b9ad4;stroke-width:1}.st21{fill:#4f87bb;fill-opacity:1;stroke:#4f87bb;stroke-opacity:1;stroke-width:.13368983957219}.st26{fill:#fff;font-family:Calibri;font-size:.666664em}.st27{fill:#000;fill-opacity:.2;stroke:#888;stroke-linecap:butt;stroke-width:1.25}.st28{fill:#6a6a6a;font-family:Calibri;font-size:.666664em;font-weight:700}.st29{fill:#f3f3f3;stroke:#888;stroke-linecap:butt;stroke-width:1.25;visibility:hidden}.st30{fill:#696969;font-family:Calibri;font-size:.666664em}.st31{font-size:1em;font-weight:700}.st32,.st33{fill:none;stroke:#888;stroke-linecap:butt;stroke-width:1.25}.st33{fill:#3f3f3f;stroke-linecap:round;stroke-linejoin:round}.st34,.st35{stroke:#909090}.st34{marker-end:url(#mrkr4-325);marker-start:url(#mrkr10-323);stroke-linecap:round;stroke-linejoin:round;stroke-width:.5}.st35{fill:#909090;fill-opacity:1;stroke-opacity:1;stroke-width:.16556291390728}.st36,.st37{visibility:hidden}.st36{fill:#bfbfbf;stroke:#888;stroke-linecap:butt;stroke-width:1.25}.st37{fill:#d8d8d8}.st37,.st38,.st39{stroke:#888;stroke-linecap:butt;stroke-width:1.25}.st38{fill:none;visibility:hidden}.st39{fill:#cce7f3}.st40{fill:#6a6a6a;font-family:Calibri;font-size:.666664em}.st41{marker-start:url(#mrkr4-437);stroke:#909090;stroke-linecap:round;stroke-linejoin:round;stroke-width:.5}.st43,.st44{stroke-width:1.25}.st43{fill:none;stroke:#898989;stroke-dasharray:3.75,3.75;stroke-linecap:round;stroke-linejoin:round}.st44{fill:#fceed1;stroke:#888;stroke-linecap:butt;visibility:hidden}.st48{stroke:#fdbf01;stroke-linecap:round;stroke-linejoin:round;stroke-width:1}</style><defs id="Patterns_And_Gradients"><linearGradient id="grad0-6" x1="0" y1="0" x2="1" y2="0" gradientTransform="rotate(90 .5 .5)"><stop offset=".01" stop-color="#d6d6d6"/><stop offset=".5" stop-color="#9e9e9e"/><stop offset="1" stop-color="#d6d6d6"/></linearGradient></defs><defs id="Markers"><marker id="mrkr4-88" class="st11" refX="-14.96" orient="auto" markerUnits="strokeWidth" overflow="visible"><use xlink:href="#lend4" transform="scale(-7.48)"/></marker><marker id="mrkr3-102" class="st11" orient="auto" markerUnits="strokeWidth" overflow="visible"><use xlink:href="#lend3" transform="scale(-7.48)"/></marker><marker id="mrkr3-199" class="st21" orient="auto" markerUnits="strokeWidth" overflow="visible"><use xlink:href="#lend3" transform="scale(-7.48)"/></marker><marker id="mrkr4-229" class="st21" refX="-14.96" orient="auto" markerUnits="strokeWidth" overflow="visible"><use xlink:href="#lend4" transform="scale(-7.48)"/></marker><marker id="mrkr10-323" class="st35" refX="3.81" orient="auto" markerUnits="strokeWidth" overflow="visible"><use xlink:href="#lend10" transform="scale(6.04)"/></marker><marker id="mrkr4-325" class="st35" refX="-12.08" orient="auto" markerUnits="strokeWidth" overflow="visible"><use xlink:href="#lend4" transform="scale(-6.04)"/></marker><marker id="mrkr4-437" refX="17.12" orient="auto" markerUnits="strokeWidth" overflow="visible" style="fill:#909090;fill-opacity:1;stroke:#909090;stroke-opacity:1;stroke-width:.11210762331839"><use xlink:href="#lend4" transform="scale(8.92)"/></marker><path d="M2 1 0 0l2-1v2" style="stroke:none" id="lend4"/><path d="M2 1 0 0l2-1" style="stroke-linecap:round;stroke-linejoin:round;fill:none" id="lend3"/><path d="M0 .75a.75.75 0 1 1 0-1.5.75.75 0 0 1 0 1.5Z" style="stroke:none" id="lend10"/></defs><g id="group1-1" transform="translate(90.425 -1054.2)"><g id="group2-2" transform="translate(0 -70.866)"><g id="shape2-7"><path d="M0 1154.55h42.52v-21.26H0v21.26Z" class="st1"/><text x="6" y="1146.32" style="fill:#fff;font-family:Calibri;font-size:.666664em;font-stretch:semi-expanded">asyncio</text></g></g><g id="group4-10"><path d="M0 1154.55h488.13v-70.86H0v70.86Z" style="fill:#fff;stroke:#ec7d32;stroke-linecap:round;stroke-linejoin:round;stroke-width:1" id="shape4-13"/></g></g><g id="group6-15" transform="translate(18 -1062.71)"><g id="shape7-16" transform="translate(-.141)"><path class="st4" d="M0 1129.04h51.024v25.512H0z"/></g><g id="shape8-18" transform="translate(16.866 -29.055)"><path d="M8.5 1154.55h0Z" class="st4"/></g><g id="shape10-22" transform="rotate(90 12.685 1167.235)"><path d="M0 1154.55h323.15" class="st5"/></g><g id="shape6-25"><path class="st4" d="M0 1129.04h50.741v25.512H0z"/><text x="17.01" y="1144.2" class="st6">main</text></g></g><g id="shape11-28" transform="rotate(-90 -345.969 760.961)"><path class="st7" d="M0 1146.05h306.142v8.504H0z"/></g><g id="shape12-30" transform="translate(519.307 -1091.06)"><path class="st8" d="M0 1129.04h50.741v25.512H0z"/><text x="17.9" y="1144.2" class="st9">Task</text></g><g id="shape13-33" transform="translate(98.929 -1091.06)"><path class="st8" d="M0 1129.04h241.404v25.512H0z"/><text x="95.35" y="1144.2" class="st9">BaseEventLoop</text></g><g id="shape14-36" transform="translate(415.269 -1091.06)"><path class="st8" d="M0 1129.04h51.024v25.512H0z"/><text x="13.72" y="1144.2" class="st9">Handle</text></g><g id="group15-39" transform="translate(283.912 -1062.71)"><g id="shape16-40" transform="translate(2.699)"><path class="st4" d="M0 1129.04h51.024v25.512H0z"/></g><g id="shape17-42" transform="translate(19.707 -29.055)"><path d="M8.5 1154.55h0Z" class="st4"/></g><g id="shape19-46" transform="rotate(90 14.105 1168.655)"><path d="M0 1154.55h289.7" class="st5"/></g><g id="shape15-49"><path class="st4" d="M0 1129.04h56.422v25.512H0z"/><text x="12.56" y="1144.2" class="st6">call_soon</text></g></g><g id="group20-52" transform="translate(340.333 -1062.71)"><g id="shape21-53" transform="translate(11.956)"><path class="st4" d="M0 1129.04h51.024v25.512H0z"/></g><g id="shape22-55" transform="translate(28.964 -29.055)"><path d="M8.5 1154.55h0Z" class="st4"/></g><g id="shape24-59" transform="rotate(90 18.735 1173.285)"><path d="M0 1154.55h69.73" class="st5"/></g><g id="shape20-62"><path class="st4" d="M0 1129.04h74.936v25.512H0z"/><text x="5.43" y="1144.2" class="st6">add_done_callback</text></g></g><g id="shape25-65" transform="translate(340.333 -1091.06)"><path class="st8" d="M0 1129.04h74.936v25.512H0z"/><text x="26.52" y="1144.2" class="st9">Future</text></g><g id="group26-68" transform="translate(100.301 -1062.71)"><g id="shape27-69" transform="translate(14.904)"><path class="st4" d="M0 1129.04h51.024v25.512H0z"/></g><g id="shape28-71" transform="translate(31.912 -29.055)"><path d="M8.5 1154.55h0Z" class="st4"/></g><g id="shape30-75" transform="rotate(90 20.21 1174.76)"><path d="M0 1154.55h323.15" class="st5"/></g><g id="shape26-78"><path class="st4" d="M0 1129.04h80.832v25.512H0z"/><text x="7.45" y="1144.2" class="st6">run_until_complete</text></g></g><g id="shape31-81" transform="rotate(-90 -297.294 712.286)"><path class="st7" d="M0 1146.05h289.134v8.504H0z"/></g><g id="shape32-83" transform="translate(47.622 -1021.61)"><path d="M0 1147.46h81.36" class="st10"/><text x="6.57" y="1133.73" class="st12">loop.run_until_complete( <tspan x="29.11" dy="1.2em" class="st13">single_task)</tspan></text></g><g id="shape33-91" transform="translate(144.969 -1004.6)"><path d="M0 1147.46h221.1" class="st10"/><text x="33.25" y="1142.73" class="st12">future.add_done_callback(_run_until_complete_cb)</text></g><g id="shape34-97" transform="translate(373.549 -987.591)"><path d="M0 1147.46h-228.58" class="st14"/></g><g id="shape35-103" transform="translate(144.969 -984.756)"><path d="M0 1161.64h49.99" class="st10"/></g><g id="group36-108" transform="translate(181.178 -1062.71)"><g id="shape37-109"><path class="st4" d="M0 1129.04h51.024v25.512H0z"/></g><g id="shape38-111" transform="translate(17.008 -29.055)"><path d="M8.5 1154.55h0Z" class="st4"/></g><g id="shape40-115" transform="rotate(90 12.755 1167.305)"><path d="M0 1154.55h307.56" class="st5"/></g><g id="shape36-118"><path class="st4" d="M0 1129.04h51.024v25.512H0z"/><text x="5.62" y="1144.2" class="st6">run_forever</text></g></g><g id="shape41-121" transform="rotate(-90 -272.813 670.797)"><path class="st7" d="M0 1146.05h221.102v8.504H0z"/></g><g id="group42-123" transform="translate(232.888 -1062.71)"><g id="shape43-124"><path class="st4" d="M0 1129.04h51.024v25.512H0z"/></g><g id="shape44-126" transform="translate(17.008 -29.055)"><path d="M8.5 1154.55h0Z" class="st4"/></g><g id="shape46-130" transform="rotate(90 12.755 1167.305)"><path d="M0 1154.55h289.13" class="st5"/></g><g id="shape42-133"><path class="st4" d="M0 1129.04h51.024v25.512H0z"/><text x="7.83" y="1144.2" class="st6">_run_once</text></g></g><g id="shape47-136" transform="translate(206.69 -942.236)"><path d="M0 1161.64h39.98" class="st10"/></g><g id="shape48-141" transform="rotate(-90 -258.296 633.603)"><path class="st7" d="M0 1146.05h155.906v8.504H0z"/></g><g id="group49-143" transform="translate(195.307 -773.575)"><path style="fill:#5b9ad4;fill-opacity:0;stroke:#5b9ad4;stroke-linecap:round;stroke-linejoin:round;stroke-width:1" d="M0 958.961h430.866v195.591H0z" id="shape49-144"/><g id="shape50-146" transform="translate(0 -177.987)"><path d="M0 1154.55h121.39l7.08-7.09v-10.51H0v17.6Z" class="st16"/><text x="4" y="1148.15" style="fill:#5c9bd4;font-family:Calibri;font-size:.666664em;font-weight:700">while BaseEventLoop._stop == false</text></g></g><g id="group52-149" transform="translate(415.269 -1062.71)"><g id="shape53-150" transform="translate(-.141)"><path class="st4" d="M0 1129.04h51.024v25.512H0z"/></g><g id="shape54-152" transform="translate(16.866 -29.055)"><path d="M8.5 1154.55h0Z" class="st4"/></g><g id="shape56-156" transform="rotate(90 12.685 1167.235)"><path d="M0 1154.55h288.85" class="st5"/></g><g id="shape52-159"><path class="st4" d="M0 1129.04h50.741v25.512H0z"/><text x="17.66" y="1144.2" class="st6">_run</text></g></g><g id="shape57-162" transform="translate(258.4 -913.89)"><path d="M0 1147.46h170.51" class="st10"/><text x="64.55" y="1127.51" class="st12">(in a for loop) <tspan x="64.55" dy="1.2em" class="st13">handle = self._ready.popleft() </tspan><tspan x="64.55" dy="1.2em" class="st13">handle._run()</tspan></text></g><g id="shape58-170" transform="translate(444.909 -902.961)"><path d="M0 1147.46h88.04" class="st10"/><text x="10.47" y="1126.5" class="st12">c implemented function <tspan x="10.47" dy="1.2em" class="st13">self.cotext._run( </tspan><tspan x="10.47" dy="1.2em" class="st13">callback, *self._args)</tspan></text></g><g id="group59-178" transform="translate(583.794 -1062.71)"><g id="shape60-179" transform="translate(-.141)"><path class="st16" d="M0 1129.04h51.024v25.512H0z"/></g><g id="shape61-181" transform="translate(16.866 -29.055)"><path d="M8.5 1154.55h0Z" class="st16"/></g><g id="shape63-185" transform="rotate(90 12.685 1167.235)"><path d="M0 1154.55h289.13" style="stroke:#4f87bb;stroke-dasharray:3.5,2.5;stroke-linecap:round;stroke-linejoin:round;stroke-width:.5"/></g><g id="shape59-188"><path class="st16" d="M0 1129.04h50.741v25.512H0z"/><text x="13.17" y="1144.2" style="fill:#245685;font-family:Calibri;font-size:.666664em;font-weight:700">co_test</text></g></g><g id="shape64-191" transform="translate(583.794 -1091.06)"><path class="st8" d="M0 1129.04h50.741v25.512H0z"/><text x="9.3" y="1144.2" class="st9">coroutine</text></g><g id="shape65-194" transform="translate(609.165 -871.37)"><path d="M0 1147.46h-60.32" style="marker-end:url(#mrkr3-199);stroke:#4f87bb;stroke-dasharray:3.5,2.5;stroke-linecap:round;stroke-linejoin:round;stroke-width:.5"/><text x="-47.76" y="1144.2" style="fill:#2d5171;font-family:Calibri;font-size:.666664em">yeild None</text></g><g id="shape66-201" transform="translate(436.388 -800.504)"><path d="M0 1161.64h-172.78" class="st14"/></g><g id="shape67-206" transform="translate(258.4 -786.331)"><path d="M0 1161.64h-46.58" class="st14"/></g><g id="group68-211" transform="translate(519.307 -1062.71)"><g id="shape69-212" transform="translate(-.141)"><path class="st4" d="M0 1129.04h51.024v25.512H0z"/></g><g id="shape70-214" transform="translate(16.866 -29.055)"><path d="M8.5 1154.55h0Z" class="st4"/></g><g id="shape72-218" transform="rotate(90 12.685 1167.235)"><path d="M0 1154.55h289.13" class="st5"/></g><g id="shape68-221"><path class="st4" d="M0 1129.04h50.741v25.512H0z"/><text x="14.24" y="1144.2" class="st6">__step</text></g></g><g id="shape73-224" transform="translate(544.677 -908.22)"><path d="M0 1161.64h52.76" style="marker-end:url(#mrkr4-229);stroke:#4f87bb;stroke-linecap:round;stroke-linejoin:round;stroke-width:.5"/><text x="5.83" y="1155.53" style="fill:#2c5071;font-family:Calibri;font-size:.666664em">self._coro.send(None)</text></g><g id="shape74-231" transform="translate(540.425 -803.748)"><path d="M0 1161.64h-95.81" class="st14"/></g><g id="shape75-236" transform="rotate(-90 -245.608 592.569)"><path class="st7" d="M0 1146.05h56.693v8.504H0z"/></g><g id="shape76-238" transform="translate(544.677 -871.37)"><path d="M0 1161.64h-220.82" class="st10"/><text x="-85.6" y="1139.41" class="st12">self._loop.call_soon( <tspan x="-85.6" dy="1.2em" class="st13">self.__step,  </tspan><tspan x="-85.6" dy="1.2em" class="st13">context=self._context)</tspan></text></g><g id="shape77-246" transform="translate(316.374 -820.346)"><path d="M0 1161.64h224.5" class="st14"/></g><g id="shape78-251" transform="rotate(-90 -305.462 467.037)"><path class="st7" d="M0 1146.05h18.709v8.504H0z"/></g><g id="shape79-253" transform="rotate(-90 -174.263 535.397)"><path class="st7" d="M0 1146.05h127.559v8.504H0z"/></g><g id="shape80-255" transform="rotate(-90 -122.244 483.378)"><path class="st7" d="M0 1146.05h116.63v8.504H0z"/></g><g id="shape81-257" transform="rotate(-90 -132.52 408.614)"><path style="fill:#5b9bd5;stroke:#4f87bb;stroke-linecap:round;stroke-linejoin:round;stroke-width:.5" d="M0 1146.05h22.677v8.504H0z"/></g><g id="shape82-259" transform="translate(309.288 -847.276)"><path d="M7.09 1154.55h18v17.01H14.57" class="st10"/><text x="31.49" y="1163.49" class="st12">Create &#38; apend <tspan x="29.43" dy="1.2em" class="st13">handle to deque</tspan></text></g><g id="shape83-266" transform="translate(261.78 -903.26)"><path d="M0 1145.34a9.213 9.213 0 0 1 18.43 0 9.213 9.213 0 1 1-18.43 0Z" class="st1"/><text x="7.19" y="1147.74" class="st26">3</text></g><g id="shape84-269" transform="translate(291.543 -811.843)"><path d="M0 1145.34a9.213 9.213 0 0 1 18.43 0 9.213 9.213 0 1 1-18.43 0Z" class="st1"/><text x="7.19" y="1147.74" class="st26">4</text></g><g id="shape85-272" transform="translate(380.835 -989.008)"><path d="M0 1145.34a9.213 9.213 0 0 1 18.43 0 9.213 9.213 0 1 1-18.43 0Z" class="st1"/><text x="7.19" y="1147.74" class="st26">2</text></g><g id="shape86-275" transform="translate(544.819 -629.008)"><path class="st27" d="M0 1140.38h87.449v14.173H0z"/><text x="2.95" y="1149.86" class="st28">_run_until_complete_cb</text></g><g id="group87-278" transform="matrix(1 0 0 -1 381.827 1651.75)"><g id="shape99-301" transform="translate(0 -56.693)"><path class="st27" d="M0 1140.38h63.779v14.173H0z"/><text x="14.55" y="-1145.06" transform="scale(1 -1)" class="st30">def <tspan class="st31">__step</tspan></text></g><g id="shape100-305" transform="translate(0 -42.52)"><path class="st32" d="M0 1140.38h63.779v14.173H0z"/><text x="4.4" y="-1145.06" transform="scale(1 -1)" class="st30">_loop:EventLoop</text></g><g id="shape101-308" transform="translate(0 -28.346)"><path class="st32" d="M0 1140.38h63.779v14.173H0z"/><text x="4.86" y="-1145.06" transform="scale(1 -1)" class="st30">_coro: coroutine</text></g><g id="shape102-311" transform="translate(0 -14.173)"><path class="st32" d="M0 1140.38h63.779v14.173H0z"/><text x="9.55" y="-1145.06" transform="scale(1 -1)" class="st30">_callbacks:list</text></g><g id="shape103-314"><path class="st33" d="M0 1140.38h63.779v14.173H0z"/><text x="24.64" y="-1145.06" transform="scale(1 -1)" class="st26">Task</text></g></g><g id="shape104-317" transform="translate(445.606 -692.787)"><path d="M1.91 1154.55H8.84" class="st34"/></g><g id="group105-326" transform="matrix(1 0 0 -1 381.827 1595.06)"><g id="shape118-351" transform="translate(0 -42.52)"/><g id="shape119-353" transform="translate(0 -28.346)"><path class="st32" d="M0 1140.38h63.779v14.173H0z"/><text x="13.57" y="-1145.06" transform="scale(1 -1)" class="st30">_stop: bool</text></g><g id="shape120-356" transform="translate(0 -14.173)"><path class="st32" d="M0 1140.38h63.779v14.173H0z"/><text x="9.33" y="-1145.06" transform="scale(1 -1)" class="st30">_ready:deque</text></g><g id="shape121-359"><path class="st33" d="M0 1140.38h63.779v14.173H0z"/><text x="7.05" y="-1145.06" transform="scale(1 -1)" class="st26">BaseEventLoop</text></g></g><g id="group122-362" transform="translate(460.488 -685.701)"><g id="shape128-373" transform="translate(85.04)"/><g id="shape129-375" transform="translate(42.52)"/><g id="shape130-377"><path class="st32" d="M0 1140.38h42.52v14.173H0z"/><text x="8.1" y="1149.86" class="st30">handle0</text></g></g><g id="shape131-380" transform="translate(445.606 -621.921)"><path d="M1.91 1154.55H8.84" class="st34"/></g><g id="shape132-387" transform="translate(460.488 -614.835)"><path class="st39" d="M0 1140.38h41.811v14.173H0z"/><text x="8.88" y="1149.86" class="st30">co_test</text></g><g id="group133-390" transform="matrix(1 0 0 -1 502.299 1694.27)"><g id="shape146-415" transform="translate(0 -42.52)"/><g id="shape147-417" transform="translate(0 -28.346)"/><g id="shape148-419" transform="translate(0 -14.173)"><path class="st32" d="M0 1140.38h56.693v14.173H0z"/><text x="13.38" y="-1145.06" transform="scale(1 -1)" class="st40">_callback</text></g><g id="shape149-422"><path class="st33" d="M0 1140.38h56.693v14.173H0z"/><text x="16.83" y="-1145.06" transform="scale(1 -1)" class="st26">Handle</text></g></g><g id="shape150-425" transform="rotate(180 251.15 857.765)"><path d="M1.91 1154.55h48.74" class="st34"/></g><g id="shape151-432" transform="translate(530.646 -614.835)"><path d="M0 1145.99v-33.86h-48.9v-28.44" class="st41"/></g><g id="shape152-438" transform="translate(374.74 -706.961)"><path d="M-1.47 1154.55h-5.62v99.21H7.09" class="st41"/></g><g id="shape153-443" transform="translate(445.606 -636.094)"><path d="M1.91 1154.55H8.84" class="st34"/></g><g id="group154-450" transform="translate(460.488 -629.008)"><g id="shape160-461" transform="translate(85.04)"/><g id="shape161-463" transform="translate(42.52)"/><g id="shape162-465"><path class="st32" d="M0 1140.38h42.52v14.173H0z"/><text x="5.65" y="1149.86" class="st30">function0</text></g></g><g id="shape163-468" transform="translate(503.008 -636.094)"><path d="M1.91 1154.55h33.86" class="st34"/></g><g id="group165-475" transform="matrix(1 0 0 -1 48.503 1821.83)"><g id="shape177-498" transform="translate(0 -56.693)"><path class="st27" d="M0 1140.38h63.779v14.173H0z"/><text x="14.55" y="-1145.06" transform="scale(1 -1)" class="st30">def <tspan class="st31">__step</tspan></text></g><g id="shape178-502" transform="translate(0 -42.52)"><path class="st32" d="M0 1140.38h63.779v14.173H0z"/><text x="4.4" y="-1145.06" transform="scale(1 -1)" class="st30">_loop:EventLoop</text></g><g id="shape179-505" transform="translate(0 -28.346)"><path class="st32" d="M0 1140.38h63.779v14.173H0z"/><text x="4.86" y="-1145.06" transform="scale(1 -1)" class="st30">_coro: coroutine</text></g><g id="shape180-508" transform="translate(0 -14.173)"><path class="st32" d="M0 1140.38h63.779v14.173H0z"/><text x="9.55" y="-1145.06" transform="scale(1 -1)" class="st30">_callbacks:list</text></g><g id="shape181-511"><path class="st33" d="M0 1140.38h63.779v14.173H0z"/><text x="24.64" y="-1145.06" transform="scale(1 -1)" class="st26">Task</text></g></g><g id="shape182-514" transform="translate(112.282 -522.709)"><path d="M1.91 1154.55H8.13" class="st34"/></g><g id="group183-521" transform="matrix(1 0 0 -1 48.503 1765.13)"><g id="shape196-546" transform="translate(0 -42.52)"/><g id="shape197-548" transform="translate(0 -28.346)"><path class="st32" d="M0 1140.38h63.779v14.173H0z"/><text x="13.57" y="-1145.06" transform="scale(1 -1)" class="st30">_stop: bool</text></g><g id="shape198-551" transform="translate(0 -14.173)"><path class="st32" d="M0 1140.38h63.779v14.173H0z"/><text x="9.33" y="-1145.06" transform="scale(1 -1)" class="st30">_ready:deque</text></g><g id="shape199-554"><path class="st33" d="M0 1140.38h63.779v14.173H0z"/><text x="7.05" y="-1145.06" transform="scale(1 -1)" class="st26">BaseEventLoop</text></g></g><g id="shape200-557" transform="translate(112.282 -451.843)"><path d="M1.9 1154.55h6.94" class="st34"/></g><g id="shape201-564" transform="translate(127.164 -444.756)"><path class="st39" d="M0 1140.38h41.811v14.173H0z"/><text x="8.88" y="1149.86" class="st30">co_test</text></g><g id="group202-567" transform="matrix(1 0 0 -1 168.975 1864.35)"><g id="shape215-592" transform="translate(0 -42.52)"/><g id="shape216-594" transform="translate(0 -28.346)"/><g id="shape217-596" transform="translate(0 -14.173)"><path class="st32" d="M0 1140.38h56.693v14.173H0z"/><text x="13.38" y="-1145.06" transform="scale(1 -1)" class="st40">_callback</text></g><g id="shape218-599"><path class="st33" d="M0 1140.38h56.693v14.173H0z"/><text x="16.83" y="-1145.06" transform="scale(1 -1)" class="st26">Handle</text></g></g><g id="shape219-602" transform="rotate(180 84.487 942.805)"><path d="M1.91 1154.55h48.74" class="st34"/></g><g id="shape220-609" transform="translate(41.416 -536.882)"><path d="M-1.47 1154.55h-5.62v99.21H7.09" class="st41"/></g><g id="shape221-614" transform="translate(112.282 -466.016)"><path d="M1.91 1154.55H8.84" class="st34"/></g><g id="group222-621" transform="translate(127.164 -458.929)"><g id="shape228-632" transform="translate(85.04)"/><g id="shape229-634" transform="translate(42.52)"/><g id="shape230-636"><path class="st32" d="M0 1140.38h42.52v14.173H0z"/><text x="5.65" y="1149.86" class="st30">function0</text></g></g><g id="shape231-639" transform="translate(169.684 -466.016)"><path d="M1.9 1154.55h33.87" class="st34"/></g><g id="group232-646" transform="translate(127.164 -515.622)"><g id="shape238-657" transform="translate(85.04)"/><g id="shape239-659" transform="translate(42.52)"/><g id="shape240-661"><path d="M0 1154.55h42.52v-14.17H0v14.17Z" class="st43"/><text x="8.4" y="1149.86" class="st30">(empty)</text></g></g><g id="shape241-664" transform="rotate(90 356.47 995.4)"><path d="M1.91 1154.55h62.92" class="st34"/></g><g id="group242-671" transform="translate(176.062 -515.622)"><g id="shape248-682" transform="translate(85.04)"/><g id="shape249-684" transform="translate(42.52)"/><g id="shape250-686"><path style="fill:#fceed1;stroke:#888;stroke-linecap:butt;stroke-width:1.25" d="M0 1140.38h42.52v14.173H0z"/><text x="2.59" y="1149.86" class="st30">handle(var)</text></g></g><g id="group252-689" transform="matrix(1 0 0 -1 381.827 1821.83)"><g id="shape264-712" transform="translate(0 -56.693)"><path class="st27" d="M0 1140.38h63.779v14.173H0z"/><text x="14.55" y="-1145.06" transform="scale(1 -1)" class="st30">def <tspan class="st31">__step</tspan></text></g><g id="shape265-716" transform="translate(0 -42.52)"><path class="st32" d="M0 1140.38h63.779v14.173H0z"/><text x="4.4" y="-1145.06" transform="scale(1 -1)" class="st30">_loop:EventLoop</text></g><g id="shape266-719" transform="translate(0 -28.346)"><path class="st32" d="M0 1140.38h63.779v14.173H0z"/><text x="4.86" y="-1145.06" transform="scale(1 -1)" class="st30">_coro: coroutine</text></g><g id="shape267-722" transform="translate(0 -14.173)"><path class="st32" d="M0 1140.38h63.779v14.173H0z"/><text x="9.55" y="-1145.06" transform="scale(1 -1)" class="st30">_callbacks:list</text></g><g id="shape268-725"><path class="st33" d="M0 1140.38h63.779v14.173H0z"/><text x="24.64" y="-1145.06" transform="scale(1 -1)" class="st26">Task</text></g></g><g id="shape269-728" transform="translate(445.606 -522.709)"><path d="M1.91 1154.55H8.84" class="st34"/></g><g id="group270-735" transform="matrix(1 0 0 -1 381.827 1765.13)"><g id="shape283-760" transform="translate(0 -42.52)"/><g id="shape284-762" transform="translate(0 -28.346)"><path class="st32" d="M0 1140.38h63.779v14.173H0z"/><text x="13.57" y="-1145.06" transform="scale(1 -1)" class="st30">_stop: bool</text></g><g id="shape285-765" transform="translate(0 -14.173)"><path class="st32" d="M0 1140.38h63.779v14.173H0z"/><text x="9.33" y="-1145.06" transform="scale(1 -1)" class="st30">_ready:deque</text></g><g id="shape286-768"><path class="st33" d="M0 1140.38h63.779v14.173H0z"/><text x="7.05" y="-1145.06" transform="scale(1 -1)" class="st26">BaseEventLoop</text></g></g><g id="group287-771" transform="translate(460.488 -515.622)"><g id="shape293-782" transform="translate(85.04)"/><g id="shape294-784" transform="translate(42.52)"/><g id="shape295-786"><path class="st32" d="M0 1140.38h42.52v14.173H0z"/><text x="8.1" y="1149.86" class="st30">handle0</text></g></g><g id="shape296-789" transform="translate(445.606 -451.843)"><path d="M1.9 1154.55h6.94" class="st34"/></g><g id="shape297-796" transform="translate(460.488 -444.756)"><path class="st39" d="M0 1140.38h41.811v14.173H0z"/><text x="8.88" y="1149.86" class="st30">co_test</text></g><g id="group298-799" transform="matrix(1 0 0 -1 502.299 1864.35)"><g id="shape311-824" transform="translate(0 -42.52)"/><g id="shape312-826" transform="translate(0 -28.346)"/><g id="shape313-828" transform="translate(0 -14.173)"><path class="st32" d="M0 1140.38h56.693v14.173H0z"/><text x="13.38" y="-1145.06" transform="scale(1 -1)" class="st40">_callback</text></g><g id="shape314-831"><path class="st33" d="M0 1140.38h56.693v14.173H0z"/><text x="16.83" y="-1145.06" transform="scale(1 -1)" class="st26">Handle</text></g></g><g id="shape315-834" transform="rotate(180 251.15 942.805)"><path d="M1.91 1154.55h48.74" class="st34"/></g><g id="shape316-841" transform="translate(530.646 -444.756)"><path d="M0 1145.99v-33.86h-48.9v-28.44" class="st41"/></g><g id="shape317-846" transform="translate(374.74 -536.882)"><path d="M-1.47 1154.55h-5.62v99.21H7.09" class="st41"/></g><g id="shape318-851" transform="translate(445.606 -466.016)"><path d="M1.91 1154.55H8.84" class="st34"/></g><g id="group319-858" transform="translate(460.488 -458.929)"><g id="shape325-869" transform="translate(85.04)"/><g id="shape326-871" transform="translate(42.52)"/><g id="shape327-873"><path class="st32" d="M0 1140.38h42.52v14.173H0z"/><text x="5.65" y="1149.86" class="st30">function0</text></g></g><g id="shape328-876" transform="translate(503.008 -466.016)"><path d="M1.91 1154.55h34.98" class="st34"/></g><g id="group329-883" transform="matrix(1 0 0 -1 502.299 1899.78)"><g id="shape342-908" transform="translate(0 -42.52)"/><g id="shape343-910" transform="translate(0 -28.346)"/><g id="shape344-912" transform="translate(0 -14.173)"><path class="st32" d="M0 1140.38h56.693v14.173H0z"/><text x="13.38" y="-1145.06" transform="scale(1 -1)" class="st40">_callback</text></g><g id="shape345-915"><path style="fill:#3f3f3f;fill-opacity:.5;stroke:#888;stroke-linecap:round;stroke-linejoin:round;stroke-width:1.25" d="M0 1140.38h56.693v14.173H0z"/><text x="16.83" y="-1145.06" transform="scale(1 -1)" class="st26">Handle</text></g></g><g id="shape346-918" transform="rotate(-147.995 195.5 888.493)"><path d="M1.91 1154.55h58.9" class="st34"/></g><g id="shape347-925" transform="translate(358.441 -714.047)"><path d="M0 1145.34a9.213 9.213 0 0 1 18.43 0 9.213 9.213 0 1 1-18.43 0Z" class="st1"/><text x="7.19" y="1147.74" class="st26">2</text></g><g id="shape348-928" transform="translate(25.37 -543.969)"><path d="M0 1145.34a9.213 9.213 0 0 1 18.43 0 9.213 9.213 0 1 1-18.43 0Z" class="st1"/><text x="7.19" y="1147.74" class="st26">3</text></g><g id="shape349-931" transform="translate(358.441 -543.969)"><path d="M0 1145.34a9.213 9.213 0 0 1 18.43 0 9.213 9.213 0 1 1-18.43 0Z" class="st1"/><text x="7.19" y="1147.74" class="st26">4</text></g><g id="shape352-934" transform="translate(212.209 -458.929)"><path class="st27" d="M0 1140.38h87.449v14.173H0z"/><text x="2.95" y="1149.86" class="st28">_run_until_complete_cb</text></g><g id="shape353-937" transform="translate(546.219 -458.929)"><path class="st27" d="M0 1140.38h87.449v14.173H0z"/><text x="2.95" y="1149.86" style="fill:#696969;font-family:Calibri;font-size:.666664em;font-weight:700">_run_until_complete_cb</text></g><g id="group436-940" transform="matrix(1 0 0 -1 48.756 1651.75)"><g id="shape448-963" transform="translate(0 -56.693)"><path class="st27" d="M0 1140.38h63.779v14.173H0z"/><text x="14.55" y="-1145.06" transform="scale(1 -1)" class="st30">def <tspan class="st31">__step</tspan></text></g><g id="shape449-967" transform="translate(0 -42.52)"><path class="st32" d="M0 1140.38h63.779v14.173H0z"/><text x="4.4" y="-1145.06" transform="scale(1 -1)" class="st30">_loop:EventLoop</text></g><g id="shape450-970" transform="translate(0 -28.346)"><path class="st32" d="M0 1140.38h63.779v14.173H0z"/><text x="4.86" y="-1145.06" transform="scale(1 -1)" class="st30">_coro: coroutine</text></g><g id="shape451-973" transform="translate(0 -14.173)"><path class="st32" d="M0 1140.38h63.779v14.173H0z"/><text x="9.55" y="-1145.06" transform="scale(1 -1)" class="st30">_callbacks:list</text></g><g id="shape452-976"><path class="st33" d="M0 1140.38h63.779v14.173H0z"/><text x="24.64" y="-1145.06" transform="scale(1 -1)" class="st26">Task</text></g></g><g id="shape453-979" transform="translate(112.536 -692.787)"><path d="M1.91 1154.55H8.84" class="st34"/></g><g id="group454-986" transform="matrix(1 0 0 -1 48.756 1595.06)"><g id="shape467-1011" transform="translate(0 -42.52)"/><g id="shape468-1013" transform="translate(0 -28.346)"><path class="st32" d="M0 1140.38h63.779v14.173H0z"/><text x="13.57" y="-1145.06" transform="scale(1 -1)" class="st30">_stop: bool</text></g><g id="shape469-1016" transform="translate(0 -14.173)"><path class="st32" d="M0 1140.38h63.779v14.173H0z"/><text x="9.33" y="-1145.06" transform="scale(1 -1)" class="st30">_ready:deque</text></g><g id="shape470-1019"><path class="st33" d="M0 1140.38h63.779v14.173H0z"/><text x="7.05" y="-1145.06" transform="scale(1 -1)" class="st26">BaseEventLoop</text></g></g><g id="group471-1022" transform="translate(127.417 -685.701)"><g id="shape477-1033" transform="translate(85.04)"/><g id="shape478-1035" transform="translate(42.52)"/><g id="shape479-1037"><path class="st32" d="M0 1140.38h42.52v14.173H0z"/><text x="8.1" y="1149.86" class="st30">handle0</text></g></g><g id="shape480-1040" transform="translate(112.536 -621.921)"><path d="M1.91 1154.55H8.84" class="st34"/></g><g id="shape481-1047" transform="translate(127.417 -614.835)"><path class="st39" d="M0 1140.38h41.811v14.173H0z"/><text x="8.88" y="1149.86" class="st30">co_test</text></g><g id="group482-1050" transform="matrix(1 0 0 -1 169.228 1694.27)"><g id="shape495-1075" transform="translate(0 -42.52)"/><g id="shape496-1077" transform="translate(0 -28.346)"/><g id="shape497-1079" transform="translate(0 -14.173)"><path class="st32" d="M0 1140.38h56.693v14.173H0z"/><text x="13.38" y="-1145.06" transform="scale(1 -1)" class="st40">_callback</text></g><g id="shape498-1082"><path class="st33" d="M0 1140.38h56.693v14.173H0z"/><text x="16.83" y="-1145.06" transform="scale(1 -1)" class="st26">Handle</text></g></g><g id="shape499-1085" transform="rotate(180 84.614 857.765)"><path d="M1.91 1154.55h48.74" class="st34"/></g><g id="shape500-1092" transform="translate(197.575 -614.835)"><path d="M0 1145.99v-33.86h-48.9v-28.44" class="st41"/></g><g id="shape501-1097" transform="translate(41.67 -706.961)"><path d="M-1.47 1154.55h-5.62v99.21H7.09" class="st41"/></g><g id="shape502-1102" transform="translate(112.536 -636.094)"><path d="M1.91 1154.55H8.84" class="st34"/></g><g id="shape513-1109" transform="translate(25.37 -714.047)"><path d="M0 1145.34a9.213 9.213 0 0 1 18.43 0 9.213 9.213 0 1 1-18.43 0Z" class="st1"/><text x="7.19" y="1147.74" class="st26">1</text></g><g id="group514-1112" transform="translate(127.417 -629.008)"><g id="shape520-1123" transform="translate(85.04)"/><g id="shape521-1125" transform="translate(42.52)"/><g id="shape522-1127"><path d="M0 1154.55h42.52v-14.17H0v14.17Z" class="st43"/><text x="8.4" y="1149.86" class="st30">(empty)</text></g></g><g id="shape523-1130" transform="translate(26.079 -1037.2)"><path d="M0 1145.34a9.213 9.213 0 0 1 18.43 0 9.213 9.213 0 1 1-18.43 0Z" class="st1"/><text x="7.19" y="1147.74" class="st26">1</text></g><g id="shape350-1133" transform="translate(289.701 -766.488)"><path d="M0 1127.62v4.25h327.54v-4.25" class="st48"/><text x="30.56" y="1146.21" style="fill:#8d6a01;font-family:Calibri;font-size:.833336em">This part should work multiple time if we had more handles/tasks</text></g><g id="shape355-1137" transform="translate(566.061 -379.559)"><path d="M-4.25 1124.79H0v29.76h-4.25" class="st48"/><text x="4" y="1137.27" style="fill:#8d6a01;font-family:Calibri;font-size:.666664em">will be <tspan x="4" dy="1.2em" class="st13">abandoned</tspan></text></g></svg>