<svg xmlns="http://www.w3.org/2000/svg" xmlns:xlink="http://www.w3.org/1999/xlink" width="1400" height="1530" viewBox="0 0 700 765" xml:space="preserve" color-interpolation-filters="sRGB" style="fill:none;fill-rule:evenodd;font-size:12px;overflow:visible;stroke-linecap:square;stroke-miterlimit:3"><style>.st1{fill:#ec7d31;stroke:#fff;stroke-linecap:round;stroke-linejoin:round;stroke-width:1}.st4,.st5{stroke:#e0a800}.st4{marker-end:url(#mrkr4-20);stroke-linecap:round;stroke-linejoin:round;stroke-width:.5}.st5{fill:#e0a800;fill-opacity:1;stroke-opacity:1;stroke-width:.13368983957219}.st6{fill:#896600;font-family:Calibri;font-size:.666664em}.st7{font-size:1em}.st8{fill:#5b9ad4;stroke:#fff;stroke-linecap:round;stroke-linejoin:round;stroke-width:1}.st9{fill:#fff;font-family:Calibri;font-size:.666664em;font-weight:700}.st10,.st11{stroke-linecap:round;stroke-linejoin:round}.st10{fill:#fff;stroke:#a5a5a5;stroke-width:2}.st11{stroke:#909090;stroke-dasharray:3.5,2.5;stroke-width:.5}.st12{fill:#5c5c5c;font-family:Calibri;font-size:.666664em;font-weight:700}.st13,.st14{stroke-linecap:round;stroke-linejoin:round}.st13{marker-end:url(#mrkr3-59);stroke:#e0a800;stroke-dasharray:3.5,2.5;stroke-width:.5}.st14{fill:#fff;stroke:#5b9ad4;stroke-width:1}.st17,.st18{stroke:#3a63ac}.st17{marker-end:url(#mrkr4-112);stroke-linecap:round;stroke-linejoin:round;stroke-width:.5}.st18{fill:#3a63ac;fill-opacity:1;stroke-opacity:1;stroke-width:.13368983957219}.st19{fill:#203a68;font-family:Calibri;font-size:.666664em}.st20,.st21,.st22{stroke-linecap:round;stroke-linejoin:round;stroke-width:.5}.st20{marker-end:url(#mrkr3-119);stroke:#3a63ac;stroke-dasharray:3.5,2.5}.st21,.st22{fill:#ffc000;stroke:#e0a800}.st22{fill:#5b9bd5;stroke:#4f87bb}.st23{fill:#fff;font-family:Calibri;font-size:.666664em}.st25,.st26{stroke:#888;stroke-linecap:butt;stroke-width:1.25}.st25{fill:#f3f3f3;visibility:hidden}.st26{fill:#d8d8d8}.st27{fill:#696969;font-family:Calibri;font-size:.666664em}.st28{font-size:1em;font-weight:700}.st29,.st30{fill:none;stroke:#888;stroke-linecap:butt;stroke-width:1.25}.st30{fill:#3f3f3f;stroke-linecap:round;stroke-linejoin:round}.st31,.st32{stroke:#909090}.st31{marker-end:url(#mrkr4-341);marker-start:url(#mrkr10-339);stroke-linecap:round;stroke-linejoin:round;stroke-width:.5}.st32{fill:#909090;fill-opacity:1;stroke-opacity:1;stroke-width:.16556291390728}.st33{fill:#bfbfbf;stroke:#888;stroke-linecap:butt;stroke-width:1.25;visibility:hidden}.st34{fill:#6a6a6a;font-family:Calibri;font-size:.666664em}.st35,.st36{stroke:#888;stroke-linecap:butt;stroke-width:1.25}.st35{fill:none;visibility:hidden}.st36{fill:#cce7f3}.st37{marker-start:url(#mrkr4-419);stroke:#909090;stroke-linecap:round;stroke-linejoin:round;stroke-width:.5}.st39{fill:#000;fill-opacity:.2;stroke:#888;stroke-linecap:butt;stroke-width:1.25}.st40{fill:#6a6a6a;font-family:Calibri;font-size:.666664em;font-weight:700}.st41{fill:#d8d8d8;stroke:#888;stroke-linecap:butt;visibility:hidden}.st41,.st43,.st44{stroke-width:1.25}.st43{fill:none;stroke:#898989;stroke-dasharray:3.75,3.75;stroke-linecap:round;stroke-linejoin:round}.st44{fill:#fceed1;stroke:#888;stroke-linecap:butt;visibility:hidden}.st46{visibility:visible}.st47,.st48{stroke:#000;stroke-linecap:butt}.st47{fill:#000;visibility:hidden}.st48{fill:none}.st49{fill:#000;font-family:Calibri;font-size:.666664em}</style><defs id="Patterns_And_Gradients"><linearGradient id="grad0-6" x1="0" y1="0" x2="1" y2="0" gradientTransform="rotate(90 .5 .5)"><stop offset=".01" stop-color="#d6d6d6"/><stop offset=".5" stop-color="#9e9e9e"/><stop offset="1" stop-color="#d6d6d6"/></linearGradient></defs><defs id="Markers"><marker id="mrkr4-20" class="st5" refX="-14.96" orient="auto" markerUnits="strokeWidth" overflow="visible"><use xlink:href="#lend4" transform="scale(-7.48)"/></marker><marker id="mrkr3-59" class="st5" orient="auto" markerUnits="strokeWidth" overflow="visible"><use xlink:href="#lend3" transform="scale(-7.48)"/></marker><marker id="mrkr4-112" class="st18" refX="-14.96" orient="auto" markerUnits="strokeWidth" overflow="visible"><use xlink:href="#lend4" transform="scale(-7.48)"/></marker><marker id="mrkr3-119" class="st18" orient="auto" markerUnits="strokeWidth" overflow="visible"><use xlink:href="#lend3" transform="scale(-7.48)"/></marker><marker id="mrkr10-339" class="st32" refX="3.81" orient="auto" markerUnits="strokeWidth" overflow="visible"><use xlink:href="#lend10" transform="scale(6.04)"/></marker><marker id="mrkr4-341" class="st32" refX="-12.08" orient="auto" markerUnits="strokeWidth" overflow="visible"><use xlink:href="#lend4" transform="scale(-6.04)"/></marker><marker id="mrkr4-419" refX="17.12" orient="auto" markerUnits="strokeWidth" overflow="visible" style="fill:#909090;fill-opacity:1;stroke:#909090;stroke-opacity:1;stroke-width:.11210762331839"><use xlink:href="#lend4" transform="scale(8.92)"/></marker><path d="M2 1 0 0l2-1v2" style="stroke:none" id="lend4"/><path d="M2 1 0 0l2-1" style="stroke-linecap:round;stroke-linejoin:round;fill:none" id="lend3"/><path d="M0 .75a.75.75 0 1 1 0-1.5.75.75 0 0 1 0 1.5Z" style="stroke:none" id="lend10"/></defs><g id="group1-1" transform="translate(52.724 -1085.95)"><g id="group2-2" transform="translate(0 -70.866)"><g id="shape2-7"><path d="M0 1200.41h42.52v-21.26H0v21.26Z" class="st1"/><text x="6" y="1192.18" style="fill:#fff;font-family:Calibri;font-size:.666664em;font-stretch:semi-expanded">asyncio</text></g></g><g id="group4-10"><path d="M0 1200.41h523.97v-70.87H0v70.87Z" style="fill:#fff;stroke:#ec7d32;stroke-linecap:round;stroke-linejoin:round;stroke-width:1" id="shape4-13"/></g></g><g id="shape479-15" transform="translate(258.916 -945.638)"><path d="M0 1193.32h168.14" class="st4"/><text x="31.75" y="1190.25" class="st6">timer = events.TimerHandle(when,...</text></g><g id="shape481-22" transform="translate(89.138 -1031.9)"><path d="M7.09 1200.41h18v17H14.57" class="st4"/><text x="30.26" y="1203.67" class="st6">... <tspan x="30.26" dy="1.2em" class="st7">future = loop.create_future()</tspan></text></g><g id="shape12-29" transform="translate(517.453 -1122.8)"><path class="st8" d="M0 1174.89h50.741v25.512H0z"/><text x="17.9" y="1190.05" class="st9">Task</text></g><g id="shape13-32" transform="translate(173.197 -1122.8)"><path class="st8" d="M0 1174.89h113.386v25.512H0z"/><text x="31.34" y="1190.05" class="st9">BaseEventLoop</text></g><g id="shape14-35" transform="translate(413.415 -1122.8)"><path class="st8" d="M0 1174.89h51.75v25.512H0z"/><text x="4.44" y="1190.05" class="st9">TimerHandle</text></g><g id="group20-38" transform="translate(338.479 -1094.46)"><g id="shape21-39" transform="translate(11.956)"><path class="st10" d="M0 1174.89h51.024v25.512H0z"/></g><g id="shape22-41" transform="translate(28.964 -29.055)"><path d="M8.5 1200.41h0Z" class="st10"/></g><g id="shape24-45" transform="rotate(90 18.73 1219.14)"><path d="M0 1200.41h259.37" class="st11"/></g><g id="shape20-48"><path class="st10" d="M0 1174.89h74.936v25.512H0z"/><text x="5.43" y="1190.05" class="st12">add_done_callback</text></g></g><g id="shape25-51" transform="translate(288 -1122.8)"><path class="st8" d="M0 1174.89h125.415v25.512H0z"/><text x="51.76" y="1190.05" class="st9">Future</text></g><g id="shape34-54" transform="translate(375.947 -832.252)"><path d="M0 1193.32h162.34" class="st13"/></g><g id="group52-60" transform="translate(464.156 -1094.46)"><g id="shape53-61" transform="translate(-.141)"><path class="st10" d="M0 1174.89h51.024v25.512H0z"/></g><g id="shape54-63" transform="translate(16.866 -29.055)"><path d="M8.5 1200.41h0Z" class="st10"/></g><g id="shape56-67" transform="rotate(90 12.685 1213.095)"><path d="M0 1200.41h161.77" class="st11"/></g><g id="shape52-70"><path class="st10" d="M0 1174.89h50.741v25.512H0z"/><text x="11.9" y="1190.05" class="st12">__init__</text></g></g><g id="group59-73" transform="translate(581.941 -1094.46)"><g id="shape60-74" transform="translate(-.141)"><path class="st14" d="M0 1174.89h51.024v25.512H0z"/></g><g id="shape61-76" transform="translate(16.866 -29.055)"><path d="M8.5 1200.41h0Z" class="st14"/></g><g id="shape63-80" transform="rotate(90 12.685 1213.095)"><path d="M0 1200.41h260.99" style="stroke:#4f87bb;stroke-dasharray:3.5,2.5;stroke-linecap:round;stroke-linejoin:round;stroke-width:.5"/></g><g id="shape59-83"><path class="st14" d="M0 1174.89h50.741v25.512H0z"/><text x="13.17" y="1190.05" style="fill:#245685;font-family:Calibri;font-size:.666664em;font-weight:700">co_test</text></g></g><g id="shape64-86" transform="translate(581.941 -1122.8)"><path class="st8" d="M0 1174.89h50.741v25.512H0z"/><text x="9.3" y="1190.05" class="st9">coroutine</text></g><g id="shape65-89" transform="translate(434.534 -930.864)"><path d="M0 1207.49h-171.15" class="st13"/></g><g id="group68-94" transform="translate(517.453 -1094.46)"><g id="shape69-95" transform="translate(-.141)"><path class="st10" d="M0 1174.89h51.024v25.512H0z"/></g><g id="shape70-97" transform="translate(16.866 -29.055)"><path d="M8.5 1200.41h0Z" class="st10"/></g><g id="shape72-101" transform="rotate(90 12.685 1213.095)"><path d="M0 1200.41h269.49" class="st11"/></g><g id="shape68-104"><path class="st10" d="M0 1174.89h50.741v25.512H0z"/><text x="14.24" y="1190.05" class="st12">__step</text></g></g><g id="shape73-107" transform="translate(547.075 -1067.53)"><path d="M0 1207.49h48.5" class="st17"/><text x="2.88" y="1201.39" class="st19">self._coro.send(None)</text></g><g id="shape74-114" transform="translate(603.059 -877.606)"><path d="m0 1201.82-55.98 11.34" class="st20"/></g><g id="shape79-120" transform="rotate(-90 -219.551 487.075)"><path class="st21" d="M0 1191.9h6.888v8.504H0z"/></g><g id="shape80-122" transform="rotate(-90 -139.045 514.285)"><path class="st21" d="M0 1191.9h252.283v8.504H0z"/></g><g id="shape81-124" transform="rotate(-90 -132.312 456.53)"><path class="st22" d="M0 1191.9h184.252v8.504H0z"/></g><g id="shape84-126" transform="translate(541.701 -826.384)"><path d="M0 1191.19a9.213 9.213 0 0 1 18.43 0 9.213 9.213 0 1 1-18.43 0Z" class="st1"/><text x="7.19" y="1193.59" class="st23">4</text></g><g id="shape427-129" transform="translate(236.268 -1066.11)"><path d="M0 1191.19a9.213 9.213 0 1 1 18.43 0 9.213 9.213 0 0 1-18.43 0Z" class="st1"/><text x="7.19" y="1193.59" class="st23">1</text></g><g id="shape430-132" transform="translate(465.165 -1122.8)"><path class="st8" d="M0 1174.89h51.75v25.512H0z"/><text x="14.09" y="1190.05" class="st9">Handle</text></g><g id="group447-135" transform="translate(67.17 -1094.46)"><g id="shape448-136" transform="translate(-.709)"><path class="st10" d="M0 1174.89h51.024v25.512H0z"/></g><g id="shape449-138" transform="translate(16.3 -29.055)"><path d="M8.5 1200.41h0Z" class="st10"/></g><g id="shape451-142" transform="rotate(90 12.4 1212.81)"><path d="M0 1200.41h259.37" class="st11"/></g><g id="shape447-145"><path class="st10" d="M0 1174.89h49.606v25.512H0z"/><text x="16.05" y="1190.05" class="st12">sleep</text></g></g><g id="group452-148" transform="translate(173.411 -1094.46)"><g id="shape453-149" transform="translate(2.699)"><path class="st10" d="M0 1174.89h51.024v25.512H0z"/></g><g id="shape454-151" transform="translate(19.707 -29.055)"><path d="M8.5 1200.41h0Z" class="st10"/></g><g id="shape456-155" transform="rotate(90 14.105 1214.515)"><path d="M0 1200.41h259.37" class="st11"/></g><g id="shape452-158"><path class="st10" d="M0 1174.89h56.422v25.512H0z"/><text x="12.83" y="1190.05" class="st12">call_later</text></g></g><g id="shape457-161" transform="rotate(-90 -352.166 642.367)"><path class="st21" d="M0 1191.9h70.866v8.504H0z"/></g><g id="shape458-163" transform="translate(603.059 -1036.35)"><path d="M0 1193.32h-499.35" class="st17"/><text x="-285.99" y="1190.25" class="st19">await asyncio.sleep(0.1)</text></g><g id="shape460-169" transform="translate(91.972 -973.984)"><path d="M0 1193.32h97.92" class="st4"/><text x="9.75" y="1178.36" class="st6">loop.call_later( <tspan x="9.75" dy="1.2em" class="st7">delay, futures._set_result_unless_cancelled,future, result)</tspan></text></g><g id="shape461-176" transform="translate(197.37 -917.291)"><path d="M0 1207.49h-101.41" class="st13"/></g><g id="group462-181" transform="translate(230.705 -1094.46)"><g id="shape463-182" transform="translate(2.699)"><path class="st10" d="M0 1174.89h51.024v25.512H0z"/></g><g id="shape464-184" transform="translate(19.707 -29.055)"><path d="M8.5 1200.41h0Z" class="st10"/></g><g id="shape466-188" transform="rotate(90 14.105 1214.515)"><path d="M0 1200.41h259.37" class="st11"/></g><g id="shape462-191"><path class="st10" d="M0 1174.89h56.422v25.512H0z"/><text x="17.24" y="1190.05" class="st12">call_at</text></g></g><g id="shape467-194" transform="rotate(-90 -326.17 611.067)"><path class="st21" d="M0 1191.9h51.388v8.504H0z"/></g><g id="shape468-196" transform="translate(202.559 -959.811)"><path d="M0 1193.32h44.63" class="st4"/><text x="11" y="1190.25" style="fill:#886500;font-family:Calibri;font-size:.666664em">timer = self.call_at(self.time() + delay...</text></g><g id="shape469-202" transform="translate(254.664 -922.961)"><path d="M0 1207.49h-48.86" class="st13"/><text x="-40.59" y="1214.34" class="st6">return timer</text></g><g id="group470-208" transform="translate(413.415 -1094.46)"><g id="shape471-209" transform="translate(-.141)"><path class="st10" d="M0 1174.89h51.024v25.512H0z"/></g><g id="shape472-211" transform="translate(16.866 -29.055)"><path d="M8.5 1200.41h0Z" class="st10"/></g><g id="shape474-215" transform="rotate(90 12.685 1213.095)"><path d="M0 1200.41h166.88" class="st11"/></g><g id="shape470-218"><path class="st10" d="M0 1174.89h50.741v25.512H0z"/><text x="11.9" y="1190.05" class="st12">__init__</text></g></g><g id="shape477-221" transform="rotate(-90 -240.37 516.998)"><path class="st21" d="M0 1191.9h28.947v8.504H0z"/></g><g id="shape480-223" transform="translate(443.209 -932.683)"><path d="M0 1193.32h34.59" class="st4"/><text x="10.31" y="1184.38" class="st6">super().__init__(...</text></g><g id="shape482-229" transform="rotate(-90 -229.57 590.637)"><path class="st21" d="M0 1191.9h5.669v8.504H0z"/></g><g id="shape484-231" transform="translate(538.878 -837.921)"><path d="M0 1193.32h-151.2" class="st4"/><text x="-140.76" y="1181" class="st6">result.add_done_callback( <tspan x="-140.76" dy="1.2em" class="st7">self.__wakeup, context=self._context)</tspan></text></g><g id="shape485-238" transform="translate(485.275 -925.795)"><path d="M0 1193.32h-42.66" class="st13"/></g><g id="shape492-243" transform="translate(282.55 -1070.36)"><path d="M0 1193.32h248.54" class="st4"/><text x="-24.61" y="1195.17" class="st6">from <tspan x="-24.61" dy="1.2em" class="st7">BaseEventLoop._run_once</tspan></text></g><g id="shape493-250" transform="translate(96.224 -886.11)"><path d="m0 1204.66 506.83 5.67" class="st20"/></g><g id="group495-255" transform="translate(288 -1094.46)"><g id="shape496-256" transform="translate(-.709)"><path class="st10" d="M0 1174.89h51.024v25.512H0z"/></g><g id="shape497-258" transform="translate(16.3 -29.055)"><path d="M8.5 1200.41h0Z" class="st10"/></g><g id="shape499-262" transform="rotate(90 12.4 1212.81)"><path d="M0 1200.41h259.37" class="st11"/></g><g id="shape495-265"><path class="st10" d="M0 1174.89h49.606v25.512H0z"/><text x="7.54" y="1190.05" class="st12">__await__</text></g></g><g id="shape500-268" transform="rotate(-90 -282.401 600.949)"><path class="st22" d="M0 1191.9h14.173v8.504H0z"/></g><g id="shape501-270" transform="translate(91.972 -888.945)"><path d="M0 1193.32h209.1" class="st17"/><text x="69.34" y="1191.38" class="st19">(return) await future</text></g><g id="shape502-276" transform="translate(312.803 -888.945)"><path d="M0 1207.49h-216.58" class="st20"/><text x="-105.75" y="1204.22" class="st19">yield self</text></g><g id="shape509-282" transform="translate(542.823 -818.079)"><path d="M0 1193.32h-252.5" class="st13"/><text x="-284.88" y="1195.17" class="st6">return to <tspan x="-284.88" dy="1.2em" class="st7">BaseEventLoop._run_once</tspan></text></g><g id="shape83-289" transform="translate(244.961 -914.565)"><path d="M0 1191.19a9.213 9.213 0 0 1 18.43 0 9.213 9.213 0 1 1-18.43 0Z" class="st1"/><text x="7.19" y="1193.59" class="st23">3</text></g><g id="group528-292" transform="matrix(1 0 0 -1 52.724 1877.54)"><g id="shape539-313" transform="translate(0 -70.866)"><path class="st26" d="M0 1186.23h63.779v14.173H0z"/><text x="8.51" y="-1190.92" transform="scale(1 -1)" class="st27">def <tspan class="st28">__wakeup</tspan></text></g><g id="shape540-317" transform="translate(0 -56.693)"><path class="st26" d="M0 1186.23h63.779v14.173H0z"/><text x="14.55" y="-1190.92" transform="scale(1 -1)" class="st27">def <tspan class="st28">__step</tspan></text></g><g id="shape541-321" transform="translate(0 -42.52)"><path class="st29" d="M0 1186.23h63.779v14.173H0z"/><text x="4.4" y="-1190.92" transform="scale(1 -1)" class="st27">_loop:EventLoop</text></g><g id="shape542-324" transform="translate(0 -28.346)"><path class="st29" d="M0 1186.23h63.779v14.173H0z"/><text x="4.86" y="-1190.92" transform="scale(1 -1)" class="st27">_coro: coroutine</text></g><g id="shape543-327" transform="translate(0 -14.173)"><path class="st29" d="M0 1186.23h63.779v14.173H0z"/><text x="9.55" y="-1190.92" transform="scale(1 -1)" class="st27">_callbacks:list</text></g><g id="shape544-330"><path class="st30" d="M0 1186.23h63.779v14.173H0z"/><text x="24.64" y="-1190.92" transform="scale(1 -1)" class="st23">Task</text></g></g><g id="shape545-333" transform="translate(116.504 -572.882)"><path d="M1.91 1200.41H8.13" class="st31"/></g><g id="group546-342" transform="matrix(1 0 0 -1 52.724 1806.67)"><g id="shape559-367" transform="translate(0 -42.52)"><path class="st29" d="M0 1186.23h63.779v14.173H0z"/><text x="13.57" y="-1190.92" transform="scale(1 -1)" class="st34">_stop: bool</text></g><g id="shape560-370" transform="translate(0 -28.346)"><path class="st29" d="M0 1186.23h63.779v14.173H0z"/><text x="9.33" y="-1190.92" transform="scale(1 -1)" class="st27">_ready:deque</text></g><g id="shape561-373" transform="translate(0 -14.173)"><path class="st29" d="M0 1186.23h63.779v14.173H0z"/><text x="3.97" y="-1190.92" transform="scale(1 -1)" class="st27">_schduled:deque</text></g><g id="shape562-376"><path class="st30" d="M0 1186.23h63.779v14.173H0z"/><text x="7.05" y="-1190.92" transform="scale(1 -1)" class="st23">BaseEventLoop</text></g></g><g id="group563-379" transform="translate(130.677 -565.795)"><g id="shape569-390" transform="translate(85.04)"/><g id="shape570-392" transform="translate(42.52)"/><g id="shape571-394"><path class="st29" d="M0 1186.23h42.52v14.173H0z"/><text x="8.1" y="1195.72" class="st27">handle0</text></g></g><g id="shape572-397" transform="translate(116.498 -487.842)"><path d="M1.91 1200.41H8.13" class="st31"/></g><g id="shape573-404" transform="translate(130.677 -480.756)"><path class="st36" d="M0 1186.23h41.811v14.173H0z"/><text x="8.88" y="1195.72" class="st27">co_test</text></g><g id="shape591-407" transform="translate(244.057 -558.709)"><path d="M1.91 1200.41H8.13" class="st31"/></g><g id="shape592-414" transform="translate(251.15 -459.496)"><path d="M8.56 1200.41h19.79v-77.96" class="st37"/></g><g id="shape593-420" transform="translate(45.638 -587.055)"><path d="M-1.47 1200.41h-5.78v113.38H7.09" class="st37"/></g><g id="shape594-425" transform="translate(116.504 -502.016)"><path d="M1.91 1200.41H8.13" class="st31"/></g><g id="group595-432" transform="translate(130.677 -494.929)"><g id="shape601-443" transform="translate(85.04)"/><g id="shape602-445" transform="translate(42.52)"/><g id="shape603-447"><path class="st29" d="M0 1186.23h42.52v14.173H0z"/><text x="5.65" y="1195.72" class="st27">function0</text></g></g><g id="shape604-450" transform="translate(173.197 -502.016)"><path d="M1.91 1200.41H8.13" class="st31"/></g><g id="shape605-457" transform="translate(34.3 -596.976)"><path d="M0 1191.19a9.213 9.213 0 0 1 18.43 0 9.213 9.213 0 1 1-18.43 0Z" class="st1"/><text x="7.19" y="1193.59" class="st23">3</text></g><g id="shape606-460" transform="translate(187.37 -494.929)"><path class="st39" d="M0 1186.23h87.449v14.173H0z"/><text x="2.95" y="1195.72" class="st40">_run_until_complete_cb</text></g><g id="group607-463" transform="matrix(1 0 0 -1 187.37 1934.23)"><g id="shape619-486" transform="translate(0 -56.693)"/><g id="shape620-488" transform="translate(0 -42.52)"/><g id="shape621-490" transform="translate(0 -28.346)"/><g id="shape622-492" transform="translate(0 -14.173)"><path class="st29" d="M0 1186.23h63.779v14.173H0z"/><text x="9.55" y="-1190.92" transform="scale(1 -1)" class="st27">_callbacks:list</text></g><g id="shape623-495"><path class="st30" d="M0 1186.23h63.779v14.173H0z"/><text x="23.23" y="-1190.92" transform="scale(1 -1)" class="st23">Fture</text></g></g><g id="group660-498" transform="matrix(1 0 0 -1 187.37 1820.84)"><g id="shape673-523" transform="translate(0 -42.52)"><path class="st29" d="M0 1186.23h56.693v14.173H0z"/><text x="17.3" y="-1190.92" transform="scale(1 -1)" class="st27">_when</text></g><g id="shape674-526" transform="translate(0 -28.346)"><path class="st29" d="M0 1186.23h56.693v14.173H0z"/><text x="19.6" y="-1190.92" transform="scale(1 -1)" class="st27">_args</text></g><g id="shape675-529" transform="translate(0 -14.173)"><path class="st29" d="M0 1186.23h56.693v14.173H0z"/><text x="13.38" y="-1190.92" transform="scale(1 -1)" class="st34">_callback</text></g><g id="shape676-532"><path class="st30" d="M0 1186.23h56.693v14.173H0z"/><text x="7.38" y="-1190.92" transform="scale(1 -1)" class="st23">TimerHandle</text></g></g><g id="shape677-535" transform="translate(244.054 -544.535)"><path d="M1.91 1200.41H8.13" class="st31"/></g><g id="group678-542" transform="translate(258.236 -537.449)"><g id="shape684-553" transform="translate(85.04)"/><g id="shape685-555" transform="translate(42.52)"/><g id="shape686-557"><path class="st29" d="M0 1186.23h42.52v14.173H0z"/><text x="14.04" y="1195.72" class="st27">arg0</text></g></g><g id="shape696-560" transform="rotate(180 93.685 977.745)"><path d="M1.91 1200.41H8.13" class="st31"/></g><g id="shape699-567" transform="translate(258.236 -551.622)"><path class="st39" d="M0 1186.23h104.504v14.173H0z"/><text x="3.65" y="1195.72" class="st40">_set_result_unless_cancelled</text></g><g id="shape701-570" transform="translate(173.198 -572.882)"><path d="M1.91 1200.41H8.13" class="st31"/></g><g id="shape702-577" transform="translate(187.582 -28.346)"/><g id="group708-579" transform="matrix(1 0 0 -1 385.984 1870.45)"><g id="shape719-600" transform="translate(0 -70.866)"><path class="st26" d="M0 1186.23h63.779v14.173H0z"/><text x="8.51" y="-1190.92" transform="scale(1 -1)" class="st27">def <tspan class="st28">__wakeup</tspan></text></g><g id="shape720-604" transform="translate(0 -56.693)"><path class="st26" d="M0 1186.23h63.779v14.173H0z"/><text x="14.55" y="-1190.92" transform="scale(1 -1)" class="st27">def <tspan class="st28">__step</tspan></text></g><g id="shape721-608" transform="translate(0 -42.52)"><path class="st29" d="M0 1186.23h63.779v14.173H0z"/><text x="4.4" y="-1190.92" transform="scale(1 -1)" class="st27">_loop:EventLoop</text></g><g id="shape722-611" transform="translate(0 -28.346)"><path class="st29" d="M0 1186.23h63.779v14.173H0z"/><text x="4.86" y="-1190.92" transform="scale(1 -1)" class="st27">_coro: coroutine</text></g><g id="shape723-614" transform="translate(0 -14.173)"><path class="st29" d="M0 1186.23h63.779v14.173H0z"/><text x="9.55" y="-1190.92" transform="scale(1 -1)" class="st27">_callbacks:list</text></g><g id="shape724-617"><path class="st30" d="M0 1186.23h63.779v14.173H0z"/><text x="24.64" y="-1190.92" transform="scale(1 -1)" class="st23">Task</text></g></g><g id="shape725-620" transform="translate(449.764 -579.968)"><path d="M1.91 1200.41H8.13" class="st31"/></g><g id="group726-627" transform="matrix(1 0 0 -1 385.984 1799.58)"><g id="shape739-652" transform="translate(0 -42.52)"><path class="st29" d="M0 1186.23h63.779v14.173H0z"/><text x="13.57" y="-1190.92" transform="scale(1 -1)" class="st34">_stop: bool</text></g><g id="shape740-655" transform="translate(0 -28.346)"><path class="st29" d="M0 1186.23h63.779v14.173H0z"/><text x="9.33" y="-1190.92" transform="scale(1 -1)" class="st27">_ready:deque</text></g><g id="shape741-658" transform="translate(0 -14.173)"><path class="st29" d="M0 1186.23h63.779v14.173H0z"/><text x="3.97" y="-1190.92" transform="scale(1 -1)" class="st27">_schduled:deque</text></g><g id="shape742-661"><path class="st30" d="M0 1186.23h63.779v14.173H0z"/><text x="7.05" y="-1190.92" transform="scale(1 -1)" class="st23">BaseEventLoop</text></g></g><g id="group743-664" transform="translate(463.937 -572.882)"><g id="shape749-675" transform="translate(85.04)"/><g id="shape750-677" transform="translate(42.52)"/><g id="shape751-679"><path class="st29" d="M0 1186.23h42.52v14.173H0z"/><text x="8.1" y="1195.72" class="st27">handle0</text></g></g><g id="shape752-682" transform="translate(449.758 -494.929)"><path d="M1.91 1200.41H8.13" class="st31"/></g><g id="shape753-689" transform="translate(463.937 -487.842)"><path class="st36" d="M0 1186.23h41.811v14.173H0z"/><text x="8.88" y="1195.72" class="st27">co_test</text></g><g id="shape754-692" transform="translate(577.317 -565.795)"><path d="M1.91 1200.41H8.13" class="st31"/></g><g id="shape755-699" transform="translate(584.409 -466.583)"><path d="M8.56 1200.41h19.79l-.19-77.96" class="st37"/></g><g id="shape756-704" transform="translate(378.898 -594.142)"><path d="M-1.47 1200.41h-5.78v113.38H7.09" class="st37"/></g><g id="shape757-709" transform="translate(449.764 -509.102)"><path d="M1.91 1200.41H8.13" class="st31"/></g><g id="group758-716" transform="translate(463.937 -502.016)"><g id="shape764-727" transform="translate(85.04)"/><g id="shape765-729" transform="translate(42.52)"/><g id="shape766-731"><path class="st29" d="M0 1186.23h42.52v14.173H0z"/><text x="5.65" y="1195.72" class="st27">function0</text></g></g><g id="shape767-734" transform="translate(506.457 -509.102)"><path d="M1.91 1200.41H8.13" class="st31"/></g><g id="shape768-741" transform="translate(367.559 -604.063)"><path d="M0 1191.19a9.213 9.213 0 0 1 18.43 0 9.213 9.213 0 1 1-18.43 0Z" class="st1"/><text x="7.19" y="1193.59" class="st23">4</text></g><g id="shape769-744" transform="translate(520.63 -502.016)"><path class="st39" d="M0 1186.23h87.449v14.173H0z"/><text x="2.95" y="1195.72" class="st40">_run_until_complete_cb</text></g><g id="group770-747" transform="matrix(1 0 0 -1 520.63 1927.14)"><g id="shape782-770" transform="translate(0 -56.693)"/><g id="shape783-772" transform="translate(0 -42.52)"/><g id="shape784-774" transform="translate(0 -28.346)"/><g id="shape785-776" transform="translate(0 -14.173)"><path class="st29" d="M0 1186.23h63.779v14.173H0z"/><text x="9.55" y="-1190.92" transform="scale(1 -1)" class="st27">_callbacks:list</text></g><g id="shape786-779"><path class="st30" d="M0 1186.23h63.779v14.173H0z"/><text x="23.23" y="-1190.92" transform="scale(1 -1)" class="st23">Fture</text></g></g><g id="group787-782" transform="matrix(1 0 0 -1 520.63 1813.76)"><g id="shape800-807" transform="translate(0 -42.52)"><path class="st29" d="M0 1186.23h56.693v14.173H0z"/><text x="17.3" y="-1190.92" transform="scale(1 -1)" class="st27">_when</text></g><g id="shape801-810" transform="translate(0 -28.346)"><path class="st29" d="M0 1186.23h56.693v14.173H0z"/><text x="19.6" y="-1190.92" transform="scale(1 -1)" class="st27">_args</text></g><g id="shape802-813" transform="translate(0 -14.173)"><path class="st29" d="M0 1186.23h56.693v14.173H0z"/><text x="13.38" y="-1190.92" transform="scale(1 -1)" class="st34">_callback</text></g><g id="shape803-816"><path class="st30" d="M0 1186.23h56.693v14.173H0z"/><text x="7.38" y="-1190.92" transform="scale(1 -1)" class="st23">TimerHandle</text></g></g><g id="shape804-819" transform="matrix(1 0 0 1 577.312 -551.622)"><path d="M1.91 1200.41h6.03" class="st31"/></g><g id="group805-826" transform="translate(591.307 -544.535)"><g id="shape811-837" transform="translate(85.04)"/><g id="shape812-839" transform="translate(42.52)"/><g id="shape813-841"><path class="st29" d="M0 1186.23h42.52v14.173H0z"/><text x="14.04" y="1195.72" class="st27">arg0</text></g></g><g id="group814-844" transform="translate(463.937 -445.323)"><g id="shape820-855" transform="translate(85.04)"/><g id="shape821-857" transform="translate(42.52)"/><g id="shape822-859"><path class="st29" d="M0 1186.23h42.52v14.173H0z"/><text x="15.44" y="1195.72" class="st27">cb0</text></g></g><g id="shape823-862" transform="rotate(180 260.315 974.2)"><path d="M1.91 1200.41H8.13" class="st31"/></g><g id="shape824-869" transform="translate(591.307 -558.709)"><path class="st39" d="M0 1186.23h104.504v14.173H0z"/><text x="3.65" y="1195.72" class="st40">_set_result_unless_cancelled</text></g><g id="shape825-872" transform="translate(506.458 -579.968)"><path d="M1.91 1200.41H8.13" class="st31"/></g><g id="shape826-879" transform="rotate(179.999 231.967 974.202)"><path d="M1.91 1200.41H8.13" class="st31"/></g><g id="group827-886" transform="translate(130.677 -438.236)"><g id="shape833-897" transform="translate(85.04)"/><g id="shape834-899" transform="translate(42.52)"/><g id="shape835-901"><path d="M0 1200.41h42.52v-14.18H0v14.18Z" class="st43"/><text x="8.4" y="1195.72" class="st27">(empty)</text></g></g><g id="group836-904" transform="translate(130.677 -551.622)"><g id="shape842-915" transform="translate(85.04)"/><g id="shape843-917" transform="translate(42.52)"/><g id="shape844-919"><path d="M0 1200.41h42.52v-14.18H0v14.18Z" class="st43"/><text x="8.4" y="1195.72" class="st27">(empty)</text></g></g><g id="shape845-922" transform="translate(116.498 -558.709)"><path d="M1.91 1200.41H8.13" class="st31"/></g><g id="group846-929" transform="translate(463.748 -558.709)"><g id="shape852-940" transform="translate(85.04)"/><g id="shape853-942" transform="translate(42.52)"/><g id="shape854-944"><path d="M0 1200.41h42.52v-14.18H0v14.18Z" class="st43"/><text x="8.4" y="1195.72" class="st27">(empty)</text></g></g><g id="shape855-947" transform="translate(449.755 -565.795)"><path d="M1.91 1200.41h6.03" class="st31"/></g><g id="group856-954" transform="matrix(1 0 0 -1 53.102 1686.2)"><g id="shape867-975" transform="translate(0 -70.866)"><path class="st26" d="M0 1186.23h63.779v14.173H0z"/><text x="8.51" y="-1190.92" transform="scale(1 -1)" class="st27">def <tspan class="st28">__wakeup</tspan></text></g><g id="shape868-979" transform="translate(0 -56.693)"><path class="st26" d="M0 1186.23h63.779v14.173H0z"/><text x="14.55" y="-1190.92" transform="scale(1 -1)" class="st27">def <tspan class="st28">__step</tspan></text></g><g id="shape869-983" transform="translate(0 -42.52)"><path class="st29" d="M0 1186.23h63.779v14.173H0z"/><text x="4.4" y="-1190.92" transform="scale(1 -1)" class="st27">_loop:EventLoop</text></g><g id="shape870-986" transform="translate(0 -28.346)"><path class="st29" d="M0 1186.23h63.779v14.173H0z"/><text x="4.86" y="-1190.92" transform="scale(1 -1)" class="st27">_coro: coroutine</text></g><g id="shape871-989" transform="translate(0 -14.173)"><path class="st29" d="M0 1186.23h63.779v14.173H0z"/><text x="9.55" y="-1190.92" transform="scale(1 -1)" class="st27">_callbacks:list</text></g><g id="shape872-992"><path class="st30" d="M0 1186.23h63.779v14.173H0z"/><text x="24.64" y="-1190.92" transform="scale(1 -1)" class="st23">Task</text></g></g><g id="shape873-995" transform="translate(116.882 -764.22)"><path d="M1.91 1200.41H8.13" class="st31"/></g><g id="group874-1002" transform="matrix(1 0 0 -1 53.102 1615.33)"><g id="shape887-1027" transform="translate(0 -42.52)"><path class="st29" d="M0 1186.23h63.779v14.173H0z"/><text x="13.57" y="-1190.92" transform="scale(1 -1)" class="st34">_stop: bool</text></g><g id="shape888-1030" transform="translate(0 -28.346)"><path class="st29" d="M0 1186.23h63.779v14.173H0z"/><text x="9.33" y="-1190.92" transform="scale(1 -1)" class="st27">_ready:deque</text></g><g id="shape889-1033" transform="translate(0 -14.173)"><path class="st29" d="M0 1186.23h63.779v14.173H0z"/><text x="3.97" y="-1190.92" transform="scale(1 -1)" class="st27">_schduled:deque</text></g><g id="shape890-1036"><path class="st30" d="M0 1186.23h63.779v14.173H0z"/><text x="7.05" y="-1190.92" transform="scale(1 -1)" class="st23">BaseEventLoop</text></g></g><g id="shape900-1039" transform="translate(116.876 -679.181)"><path d="M1.91 1200.41H8.13" class="st31"/></g><g id="shape901-1046" transform="translate(131.055 -672.094)"><path class="st36" d="M0 1186.23h41.811v14.173H0z"/><text x="8.88" y="1195.72" class="st27">co_test</text></g><g id="shape904-1049" transform="translate(46.016 -778.394)"><path d="M-1.47 1200.41h-5.78v113.38H7.09" class="st37"/></g><g id="shape905-1054" transform="translate(116.882 -693.354)"><path d="M1.91 1200.41H8.13" class="st31"/></g><g id="group906-1061" transform="translate(131.055 -686.268)"><g id="shape912-1072" transform="translate(85.04)"/><g id="shape913-1074" transform="translate(42.52)"/><g id="shape914-1076"><path class="st29" d="M0 1186.23h42.52v14.173H0z"/><text x="5.65" y="1195.72" class="st27">function0</text></g></g><g id="shape915-1079" transform="translate(173.575 -693.354)"><path d="M1.91 1200.41h54.25" class="st31"/></g><g id="shape916-1086" transform="translate(34.677 -788.315)"><path d="M0 1191.19a9.213 9.213 0 0 1 18.43 0 9.213 9.213 0 1 1-18.43 0Z" class="st1"/><text x="7.19" y="1193.59" class="st23">1</text></g><g id="shape917-1089" transform="translate(235.772 -686.268)"><path class="st39" d="M0 1186.23h87.449v14.173H0z"/><text x="2.95" y="1195.72" class="st40">_run_until_complete_cb</text></g><g id="shape962-1092" transform="rotate(180 90.33 874.99)"><path d="M1.9 1200.41H57.74" class="st31"/></g><g id="group974-1099" transform="translate(131.055 -742.961)"><g id="shape980-1110" transform="translate(85.04)"/><g id="shape981-1112" transform="translate(42.52)"/><g id="shape982-1114"><path d="M0 1200.41h42.52v-14.18H0v14.18Z" class="st43"/><text x="8.4" y="1195.72" class="st27">(empty)</text></g></g><g id="shape983-1117" transform="translate(116.876 -750.047)"><path d="M1.91 1200.41H8.13" class="st31"/></g><g id="group984-1124" transform="matrix(1 0 0 -1 180.661 1728.72)"><g id="shape997-1149" transform="translate(0 -42.52)"/><g id="shape998-1151" transform="translate(0 -28.346)"><path class="st29" d="M0 1186.23h56.693v14.173H0z"/><text x="19.6" y="-1190.92" transform="scale(1 -1)" class="st27">_args</text></g><g id="shape999-1154" transform="translate(0 -14.173)"><path class="st29" d="M0 1186.23h56.693v14.173H0z"/><text x="13.38" y="-1190.92" transform="scale(1 -1)" class="st34">_callback</text></g><g id="shape1000-1157"><path class="st30" d="M0 1186.23h56.693v14.173H0z"/><text x="16.83" y="-1190.92" transform="scale(1 -1)" class="st23">Handle</text></g></g><g id="shape1001-1160" transform="rotate(89.695 477.782 933.799)"><path d="M1.91 1200.41h62.92" class="st31"/></g><g id="group1002-1167" transform="translate(187.37 -742.961)"><g id="shape1008-1178" transform="translate(85.04)"/><g id="shape1009-1180" transform="translate(42.52)"/><g id="shape1010-1182"><path style="fill:#fceed1;stroke:#888;stroke-linecap:butt;stroke-width:1.25" d="M0 1186.23h42.52v14.173H0z"/><text x="2.59" y="1195.72" class="st27">handle(var)</text></g></g><g id="group1011-1185" transform="translate(131.055 -757.134)"><g id="shape1017-1196" transform="translate(85.04)"/><g id="shape1018-1198" transform="translate(42.52)"/><g id="shape1019-1200"><path d="M0 1200.41h42.52v-14.18H0v14.18Z" class="st43"/><text x="8.4" y="1195.72" class="st27">(empty)</text></g></g><g id="group1020-1203" transform="matrix(1 0 0 -1 386.091 1686.2)"><g id="shape1031-1224" transform="translate(0 -70.866)"><path class="st26" d="M0 1186.23h63.779v14.173H0z"/><text x="8.51" y="-1190.92" transform="scale(1 -1)" class="st27">def <tspan class="st28">__wakeup</tspan></text></g><g id="shape1032-1228" transform="translate(0 -56.693)"><path class="st26" d="M0 1186.23h63.779v14.173H0z"/><text x="14.55" y="-1190.92" transform="scale(1 -1)" class="st27">def <tspan class="st28">__step</tspan></text></g><g id="shape1033-1232" transform="translate(0 -42.52)"><path class="st29" d="M0 1186.23h63.779v14.173H0z"/><text x="4.4" y="-1190.92" transform="scale(1 -1)" class="st27">_loop:EventLoop</text></g><g id="shape1034-1235" transform="translate(0 -28.346)"><path class="st29" d="M0 1186.23h63.779v14.173H0z"/><text x="4.86" y="-1190.92" transform="scale(1 -1)" class="st27">_coro: coroutine</text></g><g id="shape1035-1238" transform="translate(0 -14.173)"><path class="st29" d="M0 1186.23h63.779v14.173H0z"/><text x="9.55" y="-1190.92" transform="scale(1 -1)" class="st27">_callbacks:list</text></g><g id="shape1036-1241"><path class="st30" d="M0 1186.23h63.779v14.173H0z"/><text x="24.64" y="-1190.92" transform="scale(1 -1)" class="st23">Task</text></g></g><g id="shape1037-1244" transform="translate(449.87 -764.22)"><path d="M1.91 1200.41H8.13" class="st31"/></g><g id="group1038-1251" transform="matrix(1 0 0 -1 386.091 1615.33)"><g id="shape1051-1276" transform="translate(0 -42.52)"><path class="st29" d="M0 1186.23h63.779v14.173H0z"/><text x="13.57" y="-1190.92" transform="scale(1 -1)" class="st34">_stop: bool</text></g><g id="shape1052-1279" transform="translate(0 -28.346)"><path class="st29" d="M0 1186.23h63.779v14.173H0z"/><text x="9.33" y="-1190.92" transform="scale(1 -1)" class="st27">_ready:deque</text></g><g id="shape1053-1282" transform="translate(0 -14.173)"><path class="st29" d="M0 1186.23h63.779v14.173H0z"/><text x="3.97" y="-1190.92" transform="scale(1 -1)" class="st27">_schduled:deque</text></g><g id="shape1054-1285"><path class="st30" d="M0 1186.23h63.779v14.173H0z"/><text x="7.05" y="-1190.92" transform="scale(1 -1)" class="st23">BaseEventLoop</text></g></g><g id="shape1055-1288" transform="translate(449.864 -679.181)"><path d="M1.91 1200.41H8.13" class="st31"/></g><g id="shape1056-1295" transform="translate(464.043 -672.094)"><path class="st36" d="M0 1186.23h41.811v14.173H0z"/><text x="8.88" y="1195.72" class="st27">co_test</text></g><g id="shape1057-1298" transform="translate(379.004 -778.394)"><path d="M-1.47 1200.41h-5.78v113.38H7.09" class="st37"/></g><g id="shape1058-1303" transform="translate(449.87 -693.354)"><path d="M1.91 1200.41H8.13" class="st31"/></g><g id="group1059-1310" transform="translate(464.043 -686.268)"><g id="shape1065-1321" transform="translate(85.04)"/><g id="shape1066-1323" transform="translate(42.52)"/><g id="shape1067-1325"><path class="st29" d="M0 1186.23h42.52v14.173H0z"/><text x="5.65" y="1195.72" class="st27">function0</text></g></g><g id="shape1068-1328" transform="translate(506.563 -693.354)"><path d="M1.91 1200.41H7.84" class="st31"/></g><g id="shape1069-1335" transform="translate(367.665 -788.315)"><path d="M0 1191.19a9.213 9.213 0 0 1 18.43 0 9.213 9.213 0 1 1-18.43 0Z" class="st1"/><text x="7.19" y="1193.59" class="st23">2</text></g><g id="shape1070-1338" transform="translate(520.441 -686.268)"><path class="st39" d="M0 1186.23h87.449v14.173H0z"/><text x="2.95" y="1195.72" class="st40">_run_until_complete_cb</text></g><g id="shape1071-1341" transform="rotate(180 232.025 874.99)"><path d="M1.91 1200.41H8.13" class="st31"/></g><g id="group1072-1348" transform="translate(464.043 -742.961)"><g id="shape1078-1359" transform="translate(85.04)"/><g id="shape1079-1361" transform="translate(42.52)"/><g id="shape1080-1363"><path d="M0 1200.41h42.52v-14.18H0v14.18Z" class="st43"/><text x="8.4" y="1195.72" class="st27">(empty)</text></g></g><g id="shape1081-1366" transform="translate(449.864 -750.047)"><path d="M1.91 1200.41H8.13" class="st31"/></g><g id="group1082-1373" transform="matrix(1 0 0 -1 464.043 1728.72)"><g id="shape1083-1374" transform="translate(0 -212.599)"/><g id="shape1084-1378" transform="translate(0 -198.426)"/><g id="shape1085-1382" transform="translate(0 -184.252)"/><g id="shape1086-1386" transform="translate(0 -170.079)"/><g id="shape1087-1390" transform="translate(0 -155.906)"/><g id="shape1088-1394" transform="translate(0 -141.733)"/><g id="shape1089-1398" transform="translate(0 -127.559)"/><g id="shape1090-1402" transform="translate(0 -113.386)"/><g id="shape1091-1406" transform="translate(0 -99.213)"/><g id="shape1092-1410" transform="translate(0 -85.04)"/><g id="shape1093-1414" transform="translate(0 -70.866)"/><g id="shape1094-1418" transform="translate(0 -56.693)"/><g id="shape1095-1422" transform="translate(0 -42.52)"/><g id="shape1096-1426" transform="translate(0 -28.346)"><g id="shadow1096-1427" class="st46"><path class="st48" d="M0 1186.23h56.693v14.173H0z" transform="matrix(.01 0 0 .01 28.063 1174.37)"/><text x="19.6" y="-1190.92" transform="matrix(.01 0 0 -.01 28.063 1174.37)" class="st49">_args</text></g><path class="st29" d="M0 1186.23h56.693v14.173H0z"/><text x="19.6" y="-1190.92" transform="scale(1 -1)" class="st27">_args</text></g><g id="shape1097-1432" transform="translate(0 -14.173)"><g id="shadow1097-1433" class="st46"><path class="st48" d="M0 1186.23h56.693v14.173H0z" transform="matrix(.01 0 0 .01 28.063 1174.37)"/><text x="13.38" y="-1190.92" transform="matrix(.01 0 0 -.01 28.063 1174.37)" class="st49">_callback</text></g><path class="st29" d="M0 1186.23h56.693v14.173H0z"/><text x="13.38" y="-1190.92" transform="scale(1 -1)" class="st34">_callback</text></g><g id="shape1098-1438"><path style="fill:#000;stroke:#000;stroke-linecap:round;stroke-linejoin:round" d="M0 1186.23h56.693v14.173H0z" transform="matrix(.01 0 0 .01 28.063 1174.37)" id="shadow1098-1439" class="st46"/><path style="fill:#3f3f3f;fill-opacity:.5;stroke:#888;stroke-linecap:round;stroke-linejoin:round;stroke-width:1.25" d="M0 1186.23h56.693v14.173H0z"/><text x="16.83" y="-1190.92" transform="scale(1 -1)" class="st23">Handle</text></g></g><g id="group1109-1443" transform="translate(464.043 -757.134)"><g id="shape1115-1454" transform="translate(85.04)"/><g id="shape1116-1456" transform="translate(42.52)"/><g id="shape1117-1458"><path d="M0 1200.41h42.52v-14.18H0v14.18Z" class="st43"/><text x="8.4" y="1195.72" class="st27">(empty)</text></g></g><g id="group1120-1461" transform="matrix(1 0 0 -1 570.047 1735.8)"><g id="shape1132-1484" transform="translate(0 -56.693)"/><g id="shape1133-1486" transform="translate(0 -42.52)"/><g id="shape1134-1488" transform="translate(0 -28.346)"/><g id="shape1135-1490" transform="translate(0 -14.173)"><path class="st29" d="M0 1186.23h63.779v14.173H0z"/><text x="9.55" y="-1190.92" transform="scale(1 -1)" class="st27">_callbacks:list</text></g><g id="shape1136-1493"><path class="st30" d="M0 1186.23h63.779v14.173H0z"/><text x="23.23" y="-1190.92" transform="scale(1 -1)" class="st23">Fture</text></g></g><g id="group1137-1496" transform="translate(648 -636.661)"><g id="shape1143-1507" transform="translate(85.04)"/><g id="shape1144-1509" transform="translate(42.52)"/><g id="shape1145-1511"><path d="M0 1200.41h42.52v-14.18H0v14.18Z" class="st43"/><text x="8.4" y="1195.72" class="st27">(empty)</text></g></g><g id="shape1146-1514" transform="translate(633.821 -643.748)"><path d="M1.91 1200.41H8.13" class="st31"/></g><g id="shape436-1521" transform="rotate(-90 -392.816 711.364)"><path class="st22" d="M0 1191.9h161.575v8.504H0z"/></g><g id="shape510-1523" transform="translate(75.78 -1005.17)"><path d="M0 1191.19a9.213 9.213 0 0 1 18.43 0 9.213 9.213 0 1 1-18.43 0Z" class="st1"/><text x="7.19" y="1193.59" class="st23">2</text></g><g id="shape1118-1526" transform="translate(525.815 -635.244)"><path d="M-4.25 1170.64H0v29.77h-4.25" style="stroke:#fdbf01;stroke-linecap:round;stroke-linejoin:round;stroke-width:1"/><text x="4" y="1183.12" style="fill:#8d6a01;font-family:Calibri;font-size:.666664em">will be <tspan x="4" dy="1.2em" class="st7">abandoned</tspan></text></g></svg>